<svg
  xmlns="http://www.w3.org/2000/svg"
  viewBox="0 0 660 380"
  width="100%"
  >

  <path
    transform="translate(0,-160)"
    fill="#2c3e50"
    d="
    M 320,240
      c -22,0 -40,-18 -40,-40
      s 18,-40 40,-40
      s 40,18 40,40
      s -18,40 -40,40
    Z

    M 144,336
      c -22,0 -40,-18 -40,-40
      s 18,-40 40,-40
      s 40,18 40,40
      s -18,40 -40,40
    Z

    M 492,336
      c -22,0 -40,-18 -40,-40
      s 18,-40 40,-40
      s 40,18 40,40
      s -18,40 -40,40
    Z

    M 227,491
      L 200,442
      V 480
      c 0,18 -14,32 -32,32
      H 120
      c -18,0 -32,-14 -32,-32
      V 442
      L 61,491
      c -6,12 -21,16 -33,10
      s -16,-21 -10,-33
      l 38,-70
      c 15,-29 45,-46 78,-46
      h 20
      c 16,0 32,5 45,13
      l 34,-62
      c 15,-29 45,-46 78,-46
      h 20
      c 32,0 62,18 78,46
      l 34,62
      c 14,-8 29,-13 45,-13
      h 20
      c 32,0 62,18 78,46
      l 38,70
      c 6,12 2,27 -10,33
      s -27,2 -33,-10
      L 552,442
      V 480
      c 0,18 -14,32 -32,32
      H 472
      c -18,0 -32,-14 -32,-32
      V 442
      l -27,50
      c -6,12 -21,16 -33,10
      s -16,-21 -10,-33
      l 36,-68
      c -2,-2 -4,-4 -4,-6
      L 376,346
      V 400
      c 0,18 -14,32 -32,32
      H 296
      c -18,0 -32,-14 -32,-32
      V 346
      l -27,50
      c -2,3 -3,4 -4,6
      l 36,68
      c 6,12 2,22 -10,29
      s -27,2 -33,-10
    Z"
  />
    
</svg>