<svg
  xmlns="http://www.w3.org/2000/svg"
  width="640px"
  height="360px"
  viewBox="0 0 640 360"
  >

  <path
    fill="#2c3e50"
    d="
    M 320,85
      C 298,85 280,67 280,45
      S 298,5 320,5
      S 360,23 360,45
      S 342,85 320,85
    Z

    M 144,181
      C 122,181 104,163 104,141
      S 122,101 144,101
      S 184,119 184,141
      S 166,181 144,181
    Z

    M 492,181
      C 470,181 452,163 452,141
      S 470,101 492,101
      S 532,119 532,141
      S 514,181 492,181
    Z

    M 227,336
      L 200,287
      V 325
      C 200,343 186,357 168,357
      H 120
      C 102,357 88,343 88,325
      V 287
      L 61,336
      C 55,348 40,352 28,346
      S 12,325 18,313
      L 56,243
      C 71,214 101,197 134,197
      H 154
      C 170,197 186,202 199,210
      L 233,148
      C 248,119 278,102 311,102
      H 331
      C 363,102 393,120 409,148
      L 443,210
      C 457,202 472,197 488,197
      H 508
      C 540,197 570,215 586,243
      L 624,313
      C 630,325 626,340 614,346
      S 587,348 581,336
      L 552,287
      V 325
      C 552,343 538,357 520,357
      H 472
      C 454,357 440,343 440,325
      V 287
      L 413,337
      C 407,349 392,353 380,347
      S 364,326 370,314
      L 406,246
      C 404,243 403,242 402,240
      L 376,191
      V 245
      C 376,263 362,277 344,277
      H 296
      C 278,277 264,263 264,245
      V 191
      L 237,241
      C 235,244 234,245 233,247
      L 269,315
      C 275,327 271,337 259,344
      S 232,346 227,336
    Z"
  />

  <!-- <rect width="640" height="360" fill="none" stroke="#e70fbf" stroke-width="5px" /> -->
    
</svg>