<svg
	xmlns="http://www.w3.org/2000/svg"
  width="32"
  height="32"
  viewBox="0 0 100 100">

  <g
    fill="none"
    stroke="white"
    stroke-linecap="round"
    stroke-linejoin="round"
    stroke-width="6"
  >

    <path
      d="
      M 64,88.108
        V 76.628
        A 13.48,13.48 0 0,0 60.24,66.188
        C 72.8,64.788 86,60.028 86,38.188
        A 21.76,21.76 0 0,0 80,23.188
        A 20.28,20.28 0 0,0 79.64,8.108
        S 74.92,6.708 64,14.028
        A 53.52,53.52 0 0,0 36,14.028
        C 25.08,6.708 20.36,8.108 20.36,8.108
        A 20.28,20.28 0 0,0 20,23.188
        A 21.76,21.76 0 0,0 14,38.308
        C 14,59.988 27.2,64.748 39.76,66.308
        A 13.48,13.48 0 0,0 36,76.628
        V 88.108
      "
    />

    <path
      d="
      M 36,76.628
        C 24,84 14,80.108 8,68.108
      "
    />

  </g>

  <!-- <rect width="100" height="100" fill="none" stroke="#e70fbf" /> -->

</svg>