<svg
	xmlns="http://www.w3.org/2000/svg"
  width="640"
  height="444"
	viewBox="0 0 640 444"
	>

  <rect width="640" height="444" fill="none" stroke="white" stroke-width="5px" />

  <!-- Using absolute paths... -->
	<path
    fill="#2c3e50"
		d="
    M 64,64
      C 64,29 93,0 128,0
      H 512
      C 547,0 576,29 576,64
      V 316
      H 512
      V 64
      H 128
      V 316
      H 64
      V 64
    Z
    
    M 0,367
      C 0,357 9,348 19,348
      H 621
      C 632,348 640,357 640,367
      C 640,409 606,444 563,444
      H 77
      C 34,444 0,410 0,367
    Z

    M 281,173
      L 250,204
      L 281,235
      C 290,244 290,260 281,269
      C 272,278 256,278 247,269
      L 199,221
      C 190,212 190,196 199,187
      L 247,139
      C 256,130 272,130 281,139
      C 290,148 290,164 281,173
    Z

    M 393,139
      L 441,187
      C 450,196 450,212 441,221
      L 393,269
      C 384,278 368,278 359,269
      C 350,260 350,244 359,235
      L 390,204
      L 359,173
      C 350,164 350,148 359,139
      C 368,130 384,130 393,139
    Z"
  />

  <!-- Using relative paths... -->
	<!-- <path
    fill="none"
    stroke="blue"
    stroke-width="2.5px"
		d="
    M 64, 64
      c 0,-35 29,-64 64,-64
      h 384
      c 35,0 64,29 64,64
      v 252
      h -64
      v -252
      h -384
      v 252
      h -64
      v -252
    Z
    
    M 0,367
      c 0,-10 9,-19 19,-19
      h 602
      c 11,0 19,9 19,19
      c 0,42 -34,77 -77,77
      h -486
      c -43,0 -77,-34 -77,-77
    Z

    M 281,173
      l -31,31
      l 31,31
      c 9,9 9,25 0,34
      c -9,9 -25,9 -34,0
      l -48,-48
      c -9,-9 -9,-25 0,-34
      l 48,-48
      c 9,-9 25,-9 34,0
      c 9,9 9,25 0,34
    Z

    M 393,139
      l 48,48
      c 9,9 9,25 0,34
      l -48,48
      c -9,9 -25,9 -34,0
      c -9,-9 -9,-25 0,-34
      l 31,-31
      l -31,-31
      c -9,-9 -9,-25 0,-34
      c 9,-9 25,-9 34,0
    Z"
  /> -->

</svg>