<svg
	xmlns="http://www.w3.org/2000/svg"
  width="640"
  height="360"
	viewBox="0 0 640 360"
	>

  <path
    fill="#2c3e50"
		d="
    M 64,69
      C 64,34 93,5 128,5
      H 512
      C 547,5 576,34 576,69
      V 257
      H 515
      V 66
      H 125
      V 257
      H 64
      V 69
    Z

    M 5,298
      C 5,288 14,279 24,279
      H 616
      C 626,279 635,288 635,298
      C 635,321 601,355 558,355
      H 82
      C 39,355 5,321 5,298
    Z

    M 281,141
      L 250,172
      L 281,202
      C 290,212 290,228 281,237
      C 272,246 256,246 247,237
      L 199,189
      C 190,180 190,164 199,155
      L 247,107
      C 256,98 272,98 281,107
      C 290,116 290,132 281,141
    Z

    M 393,107
      L 441,155
      C 450,164 450,180 441,189
      L 393,237
      C 384,246 368,246 359,237
      C 350,228 350,212 359,203
      L 390,172
      L 359,141
      C 350,132 350,116 359,107
      C 368,98 384,98 393,107
    Z"
  />

  <!-- <rect width="640" height="360" fill="none" stroke="#e70fbf" stroke-width="5px" /> -->

</svg>