<svg
  xmlns="http://www.w3.org/2000/svg"
  viewBox="0 0 660 512"
  width="100%"
  >

  <path
    fill="#2c3e50"
    d="
    M 64,100
      c 0,-35 29,-64 64,-64
      H 512
      c 35,0 64,29 64,64
      V 352
      H 512
      V 100
      H 128
      V 352
      H 64
      V 100
    Z

    M 0,403
      C 0,393 9,384 19,384
      H 621
      c 11,0 19,9 19,19
      c 0,42 -34,77 -77,77
      H 77
      C 34,480 0,446 0,403
    Z

    M 281,209
      l -31,31 31,31
      c 9,9 9,25 0,34
      s -25,9 -34,0
      l -48,-48
      c -9,-9 -9,-25 0,-34
      l 48,-48
      c 9,-9 25,-9 34,0
      s 9,25 0,34
    Z

    M 393,175
      l 48,48
      c 9,9 9,25 0,34
      l -48,48
      c -9,9 -25,9 -34,0
      s -9,-25 0,-34
      l 31,-31 -31,-31
      c -9,-9 -9,-25 0,-34
      s 25,-9 34,0
    Z"
  />
  
  <path
    fill="#2c3e50"
    d="
    M 0,403
      C 0,393 9,384 19,384
      H 621
      c 11,0 19,9 19,19
      c 0,42 -34,77 -77,77
      H 77
      C 34,480 0,446 0,403
    Z"
  />
  
  <path
    fill="#2c3e50"
    d="
    M 281,209
      l -31,31 31,31
      c 9,9 9,25 0,34
      s -25,9 -34,0
      l -48,-48
      c -9,-9 -9,-25 0,-34
      l 48,-48
      c 9,-9 25,-9 34,0
      s 9,25 0,34
    Z"
  />
  
  <path
    fill="#2c3e50"
    d="
    M 393,175
      l 48,48
      c 9,9 9,25 0,34
      l -48,48
      c -9,9 -25,9 -34,0
      s -9,-25 0,-34
      l 31,-31 -31,-31
      c -9,-9 -9,-25 0,-34
      s 25,-9 34,0
    Z"
  />
  
</svg>