<svg version="1.1" id="Layer_1" xmlns="http://www.w3.org/2000/svg" xmlns:xlink="http://www.w3.org/1999/xlink" x="0px" y="0px" width="100%" viewBox="0 0 397 360" enable-background="new 0 0 397 360" xml:space="preserve"><path fill="#2c3e50" opacity="1.000000" stroke="none" d=" M298.296082,351.740295 C244.000458,352.070465 189.904358,352.033508 135.808258,352.004425 C124.489563,351.998322 113.170860,352.021210 101.377762,352.067688 C100.735703,340.812103 100.510300,329.520020 100.428299,318.226898 C100.394661,313.594788 99.035843,307.764618 101.290840,304.682129 C103.319969,301.908417 109.484322,302.209717 113.795837,301.047546 C138.631805,294.352844 155.508728,279.693695 160.952805,253.696289 C161.324036,251.923477 161.381760,250.059830 161.382706,248.238327 C161.405350,204.258606 161.461105,160.278610 161.257401,116.299812 C161.244476,113.506973 159.808838,110.181099 157.959763,108.025650 C147.488022,95.818893 134.223877,88.736397 118.168587,86.342155 C100.267288,83.672630 78.868874,92.876091 69.471336,108.396088 C66.559677,113.204689 64.081322,118.335655 61.978783,123.550537 C60.812485,126.443268 59.281559,127.080833 56.455368,127.056839 C41.629936,126.930984 26.802956,126.987450 11.515782,126.913124 C11.055052,88.531883 11.055052,50.218105 11.055052,11.451589 C136.681366,11.451589 262.022705,11.451589 387.983398,11.451589 C387.983398,49.714584 387.983398,87.822128 387.964050,126.387688 C371.476379,126.845711 355.008057,126.845711 338.494751,126.845711 C333.584991,113.052422 326.511780,101.027283 313.351013,93.395561 C299.314453,85.256012 284.783813,84.466370 269.670105,89.522301 C257.384003,93.632324 247.437592,101.352486 238.320343,110.238815 C237.323410,111.210503 236.887924,113.180672 236.885483,114.688858 C236.812057,159.972488 236.406799,205.263870 237.230698,250.532623 C237.371277,258.256653 242.012207,266.340729 245.991898,273.466644 C256.185547,291.719055 273.010406,300.189331 293.105713,303.099152 C294.733978,303.334900 296.354248,303.625732 298.495575,303.975464 C298.495575,319.890778 298.495575,335.633362 298.296082,351.740295 
z"/></svg>