<svg
  width="28"
  height="32"
  viewBox="0 0 448 512"
  >

  <!-- <path
    fill="currentColor"
    d="
    M 448,80
      v 352
      c 0,26.51 -21.49,48 -48,48
      H 48
      c -26.51,0 -48,-21.49 -48,-48
      V 80
      c 0,-26.51 21.49,-48 48,-48
      h 352
      c 26.51,0 48,21.49 48,48
    Z

    M 336,128
      h -32
      c -8.837,0 -16,7.163 -16,16
      v 80
      H 160
      v -80
      c 0,-8.837 -7.163,-16 -16,-16
      h -32
      c -8.837,0 -16,7.163 -16,16
      v 224
      c 0,8.837 7.163,16 16,16
      h 32
      c 8.837,0 16,-7.163 16,-16
      v -80
      h 128
      v 80
      c 0,8.837 7.163,16 16,16
      h 32
      c 8.837,0 16,-7.163 16,-16
      V 144
      c 0,-8.837 -7.163,-16 -16,-16
    Z"
  /> -->

  <path
    fill="none"
    stroke="red"
    stroke-width="5"
    d="
    M 448,80
      v 352
      c 0,26.51 -21.49,48 -48,48
      H 48
      c -26.51,0 -48,-21.49 -48,-48
      V 80
      c 0,-26.51 21.49,-48 48,-48
      h 352
      c 26.51,0 48,21.49 48,48
    Z

    M 336,128
      h -32
      c -8.837,0 -16,7.163 -16,16
      v 80
      H 160
      v -80
      c 0,-8.837 -7.163,-16 -16,-16
      h -32
      c -8.837,0 -16,7.163 -16,16
      v 224
      c 0,8.837 7.163,16 16,16
      h 32
      c 8.837,0 16,-7.163 16,-16
      v -80
      h 128
      v 80
      c 0,8.837 7.163,16 16,16
      h 32
      c 8.837,0 16,-7.163 16,-16
      V 144
      c 0,-8.837 -7.163,-16 -16,-16
    Z"
  />

  <path
    fill="none"
    stroke="blue"
    stroke-width="5"
    d="
    M 448,80
      v 352
      c 0,26.51 -21.49,48 -48,48
      H 48
      c -26.51,0 -48,-21.49 -48,-48
      V 80
      c 0,-26.51 21.49,-48 48,-48
      h 352
      c 26.51,0 48,21.49 48,48
    Z

    M 336,128
      h -32
      c -8.837,0 -16,7.163 -16,16
      v 80
      H 160
      v -80
      c 0,-8.837 -7.163,-16 -16,-16
      h -32
      c -8.837,0 -16,7.163 -16,16
      v 224
      c 0,8.837 7.163,16 16,16
      h 32
      c 8.837,0 16,-7.163 16,-16
      v -80
      h 128
      v 80
      c 0,8.837 7.163,16 16,16
      h 32
      c 8.837,0 16,-7.163 16,-16
      V 144
      c 0,-8.837 -7.163,-16 -16,-16
    Z"
  />

  <path
    fill="none"
    stroke="yellow"
    stroke-width="5"
    d="
    M 448,80
      v 352
      c 0,30 -20,50 -48,48
      H 48
      c -30,0 -50,-20 -48,-48
      V 80
      c 0,-30 20,-50 48,-48
      h 352
      c 30,0 50,20 48,48
    Z

    M 336,128
      h -32
      c -10,0 -15,5 -16,16
      v 80
      H 160
      v -80
      c 0,-10 -5,-15 -16,-16
      h -32
      c -10,0 -15,5 -16,16
      v 224
      c 0,10 5,15 16,16
      h 32
      c 10,0 15,-5 16,-16
      v -80
      h 128
      v 80
      c 0,10 5,15 16,16
      h 32
      c 10,0 15,-5 16,-16
      V 144
      c 0,-10 -5,-15 -16,-16
    Z"
  />

</svg>