<svg
	xmlns="http://www.w3.org/2000/svg"
	viewBox="0 0 640 512"
	width="100%"
	>

	<path
		transform="translate(10,10)"
		fill="#2c3e50"
		stroke="white"
		stroke-width="7.5px"
		d="
		M 1,256
		C 1,171 1,86 1,1
		C 39,1 78,1 116,1
		C 117,4 119,7 119,10
		C 119,53 120,97 120,141
		C 120,167 120,193 120,220
		C 120,230 127,240 136,242
		C 141,244 146,244 151,244
		C 184,244 216,244 249,244
		C 256,244 261,239 261,233
		C 261,224 262,215 262,206
		C 262,192 261,178 261,164
		C 261,156 261,147 260,138
		C 260,134 258,130 253,130
		C 249,130 246,129 242,129
		C 210,129 177,129 144,129
		C 141,129 138,128 136,128
		C 132,128 132,125 132,123
		C 132,120 133,118 134,115
		C 137,104 145,96 155,90
		C 165,84 172,75 174,63
		C 176,54 179,45 187,39
		C 193,34 199,30 206,27
		C 214,23 220,17 223,9
		C 225,4 228,3 233,3
		C 271,3 310,3 348,3
		C 359,3 358,5 359,13
		C 360,73 359,91 359,109
		C 359,152 359,194 359,236
		C 359,244 359,251 353,256
		C 338,273 328,286 317,299
		C 310,306 303,314 296,322
		C 287,332 278,343 269,353
		C 268,355 267,356 266,357
		C 115,356 114,355 113,355
		C 89,351 67,343 47,328
		C 24,311 9,287 3,259
		V 1
		z"
	/>

	<!-- <path
		transform="translate(10,10)"
		fill="yellow"
		stroke="red"
		stroke-width="2.5px"
		d="
		M 0,0
		l 120,0
		l 0,225
		c 0,20 20,20 20,20
		l 100,0
		c 20,0 20,-20 20,-20
		l 0,-75
		c 0,-20 -20,-20 -20,-20
		l -105,0

		c 0,0 0,0 5,-25

		c 0,0 0,0 30,-25

		c 0,0 0,0 15,-40
		
		c 0,0 0,0 30,-15

		c 0,0 0,0 15,-25

		l 130,0
		l 0,245
		l -100,115
		l -140,0
		c -60,0 -120,-60 -120,-115
		l 0,-245
		z"
	/> -->

	<path
		transform="translate(10,10)"
		fill="transparent"
		stroke="blue"
		stroke-width="7.5px"
		d="
    M 0,0
    L 120,0
    L 120,220
    A 25,25 0 0,0 145,245
    L 240,245
		A 25,25 0 0,0 260,225
    L 260,150
    A 25,25 0 0,0 240,130
    L 135,130
		Q 125,105 170,80
		Q 177,33 215,25
		Q 225,0 235,0
		L 235,0
    L 360,0
    L 360,245
    L 260,360
    L 120,360
    A 125,125 0 0,1 0,245
    L 0,0
		z"
	/>

	<!-- <path
	fill="orange"
	stroke="green"
	stroke-width="5px"
	d="
		M 120,225
		A 30,30 0 0,0 240,245
	z"
	/> -->

	<!-- <path
		fill="#2c3e50"
		stroke="white"
		stroke-width="7.5px"
		d="
		M 641,4
		C 641,8 641,12 641,16
		C 639,19 638,21 637,24
		C 633,34 626,42 616,47
		C 605,51 598,58 594,70
		C 590,82 582,90 569,94
		C 557,98 545,103 541,116
		C 538,125 532,127 524,127
		C 510,127 496,127 483,127
		C 474,127 473,130 473,136
		C 473,305 473,306 473,306
		C 473,314 473,321 473,328
		C 473,338 473,348 470,357
		C 436,357 402,357 368,357
		C 367,355 366,353 366,352
		C 366,340 365,329 365,317
		C 365,278 364,238 364,198
		C 364,169 365,140 365,110
		C 365,78 365,45 365,13
		C 365,5 367,3 375,3
		C 387,3 400,3 412,3
		z"
	/> -->

</svg>