<svg
	xmlns="http://www.w3.org/2000/svg"
	viewBox="0 0 660 380"
	width="100%"
	>
	<path
		transform="translate(10,10)"
		fill="#2c3e50"
		d="
    M 0,0
			L 120,0
			L 120,220
			A 25,25 0 0,0 145,245
			L 240,245
			A 25,25 0 0,0 260,225
			L 260,150
			A 25,25 0 0,0 240,130
			L 135,130
			C 125,95 170,95 175,65
			C 180,30 215,30 220,15
			C 225,5 225,0 235,0
			L 360,0
			L 360,245
			L 260,360
			L 130,360
			A 135,130 0 0,1 0,230
			L 0,0
		Z

    M 370,0
			L 370,360
			L 475,360
			L 475,150
			A 25,25 0 0,1 495,130
			L 530,130
			C 540,130 540,120 545,110
			C 560,80 585,100 595,70
			C 610,35 640,55 640,0
			L 370,0
		Z"
	/>

	alternate syntax version #1...
	<!-- <path
		transform="translate(10,10)"
		fill="none"
		stroke="blue"
		stroke-width="5px"
		d="
    M 0,0
			H 120
			V 220
			A 25,25 0 0,0 145,245
			H 240
			A 25,25 0 0,0 260,225
			V 150
			A 25,25 0 0,0 240,130
			H 135
			C 125,95 170,95 175,65
			C 180,30 215,30 220,15
			C 225,5 225,0 235,0
			H 360
			V 245
			L 260,360
			H 130
			A 135,130 0 0,1 0,230
			V 0
		Z

    M 370,0
			V 360
			H 475
			V 150
			A 25,25 0 0,1 495,130
			H 530
			C 540,130 540,120 545,110
			C 560,80 585,100 595,70
			C 610,35 640,55 640,0
			H 370
		Z"
	/> -->

	alternate syntax version #2...
	<!-- <path
		transform="translate(10,10)"
		fill="none"
		stroke="green"
		stroke-width="5px"
		d="
    M 0,0
			l 120,0
			l 0,220
			a 25,25 0 0,0 25,25
			l 95,0
			a 25,25 0 0,0 20,-20
			l 0,-75
			a 25,25 0 0,0 -20,-20
			l -105,0
			c -10,-35 35,-35 40,-65
			c 5,-35 40,-35 45,-50
			c 5,-10 5,-15 15,-15
			l 125,0
			l 0,245
			l -100,115
			l -130,0
			a 135,130 0 0,1 -130,-130
			l 0,-230
		Z
		
    M 370,0
			l 0,360
			l 105,0
			l 0,-210
			a 25,25 0 0,1 20,-20
			l 35,0
			c 10,0 10,-10 15,-20
			c 15,-30 40,-10 50,-40
			c 15,-35 45,-15 45,-70
			l -270,0
		Z"
	/> -->

	alternate syntax version #3...
	<!-- <path
		transform="translate(10,10)"
		fill="none"
		stroke="yellow"
		stroke-width="5px"
		d="
    M 0,0
			h 120
			v 220
			a 25,25 0 0,0 25,25
			h 95
			a 25,25 0 0,0 20,-20
			v -75
			a 25,25 0 0,0 -20,-20
			h -105
			c -10,-35 35,-35 40,-65
			c 5,-35 40,-35 45,-50
			c 5,-10 5,-15 15,-15
			h 125
			v 245
			l -100,115
			h -130
			a 135,130 0 0,1 -130,-130
			v -230
		Z
		
    M 370,0
			v 360
			h 105
			v -210
			a 25,25 0 0,1 20,-20
			h 35
			c 10,0 10,-10 15,-20
			c 15,-30 40,-10 50,-40
			c 15,-35 45,-15 45,-70
			h -270
		Z"
	/> -->

</svg>