<svg xmlns="http://www.w3.org/2000/svg" 
	 viewBox="0 0 2400 2400" width="100px" height="80px">
<!-- <svg version="1.1" id="Layer_1" xmlns="http://www.w3.org/2000/svg" xmlns:xlink="http://www.w3.org/1999/xlink" x="0px" y="0px"
	 width="150px" height="150px" viewBox="0 0 2400 2400" enable-background="new 0 0 2400 2400" xml:space="preserve"> -->
<path fill="#2c3e50" opacity="1.000000" stroke="none" 
	d="
M490.927032,1171.339600 
	C494.138947,1184.898071 487.849701,1193.204102 472.779999,1195.305786 
	C462.686768,1196.713501 453.113495,1187.772583 452.496460,1175.729980 
	C452.301697,1171.928833 453.709320,1168.045654 454.757416,1163.312866 
	C455.083221,1161.932251 455.035278,1161.438721 454.987335,1160.945190 
	C454.655670,1161.293823 454.324005,1161.642334 453.992371,1161.990967 
	C444.111938,1164.667114 434.130768,1167.020996 424.367889,1170.073364 
	C371.688293,1186.542969 319.183228,1203.581787 266.377380,1219.632935 
	C229.770889,1230.760010 192.323395,1238.380127 154.201721,1242.294922 
	C139.424728,1243.812500 124.620392,1245.063721 108.600380,1246.550293 
	C124.231514,1201.504517 129.413681,1156.711304 123.246780,1110.450073 
	C133.412262,1109.678223 142.257004,1108.707031 151.124634,1108.402222 
	C165.101944,1107.921753 179.102570,1108.114380 193.079254,1107.622070 
	C225.630081,1106.476074 258.170929,1105.049561 290.718903,1103.818359 
	C311.652435,1103.026489 332.589630,1102.319824 353.528473,1101.683105 
	C377.795685,1100.945190 402.068634,1100.395508 426.334991,1099.632202 
	C443.611206,1099.088989 460.895935,1098.578735 478.144470,1097.523804 
	C483.997437,1097.165894 490.189819,1096.146240 495.454071,1093.738647 
	C504.800476,1089.464233 506.349762,1082.461182 499.837128,1074.673340 
	C494.128174,1067.846436 487.379089,1061.889282 480.561462,1055.015747 
	C484.113281,1052.787109 488.074951,1052.449219 492.221893,1052.294189 
	C512.965576,1051.518555 533.389221,1053.869995 553.576477,1058.458130 
	C562.003357,1060.373047 570.487244,1062.206299 578.707764,1064.822754 
	C592.441345,1069.194092 606.442200,1071.314209 620.796692,1071.801514 
	C633.743408,1072.241211 646.681946,1073.557617 659.617004,1073.467896 
	C667.486511,1073.413452 675.474182,1071.974609 683.161072,1070.127075 
	C688.819702,1068.766968 690.396301,1064.631348 687.737000,1060.368652 
	C686.643188,1058.615234 684.364563,1057.125977 682.331604,1056.548096 
	C679.509460,1055.745850 676.409119,1055.681030 673.431580,1055.708130 
	C659.110657,1055.837769 644.783447,1055.897339 630.474182,1056.415283 
	C623.859070,1056.654419 618.595581,1055.275513 613.326477,1050.678711 
	C604.629944,1043.092285 594.934387,1036.651123 585.833313,1028.772339 
	C604.994385,1027.330566 624.041809,1027.930786 643.181274,1027.555420 
	C640.854431,1019.349792 633.668823,1013.801392 625.097107,1013.711914 
	C610.098999,1013.555298 595.074219,1013.150146 580.106995,1013.846741 
	C570.414368,1014.297791 562.777649,1012.124695 556.614563,1004.286133 
	C552.582520,999.157898 547.574890,994.796692 543.395691,988.940125 
	C562.076721,987.402649 580.427185,987.883972 601.006226,987.532471 
	C593.780518,979.002502 588.164978,972.232788 577.646851,972.307007 
	C562.647888,972.412903 547.645203,972.176880 532.649231,972.413574 
	C527.257019,972.498718 523.081787,970.973267 519.358521,967.003113 
	C512.584839,959.780273 505.465851,952.881348 497.461884,944.809448 
	C508.278381,942.715454 517.793457,943.963379 527.207825,943.707581 
	C536.652405,943.450989 546.105774,943.517883 557.569336,943.427063 
	C550.136230,935.897705 543.723816,932.130005 535.123535,932.268982 
	C520.794312,932.500610 506.457275,932.225037 492.126251,932.393555 
	C487.859131,932.443726 484.454803,931.496094 481.518555,928.172913 
	C476.238129,922.196594 470.610901,916.527893 465.219574,910.647339 
	C463.981903,909.297485 463.112762,907.609741 460.980713,904.464783 
	C480.880585,904.464783 499.204803,904.464783 519.595337,904.464783 
	C512.192322,897.471558 506.177155,893.931335 497.832581,894.205811 
	C483.848022,894.665771 469.835358,894.198120 455.838745,894.406616 
	C451.484344,894.471497 448.192474,893.220520 445.356903,889.931885 
	C438.939758,882.489380 432.350861,875.195007 424.205811,866.005981 
	C444.455322,866.005981 462.175201,866.005981 481.825378,866.005981 
	C475.534515,857.934998 469.663605,853.589783 461.013245,853.654236 
	C448.347595,853.748596 435.673492,853.421082 423.017609,853.783264 
	C417.647156,853.936951 414.134399,852.356567 411.937225,847.421570 
	C408.750824,840.264709 404.030762,833.652283 403.999176,824.350769 
	C419.600311,824.350769 434.756378,824.350769 452.016327,824.350769 
	C444.335754,816.527405 437.455902,812.259399 428.296967,812.322449 
	C419.342743,812.384094 410.387787,812.335876 400.879395,812.335876 
	C399.357330,803.383667 396.133728,795.250549 401.121338,786.269775 
	C412.911804,786.269775 424.814758,786.269775 437.413757,786.269775 
	C428.758728,771.160339 414.129364,777.496948 401.576660,774.811646 
	C403.142365,764.694824 406.658234,756.082092 413.867432,748.020874 
	C426.558197,748.020874 439.728333,748.020874 453.462372,748.020874 
	C445.574951,737.316040 444.109344,736.559875 429.184479,734.990295 
	C435.817078,723.906311 446.375061,717.675903 458.542206,717.669739 
	C464.412445,717.666748 470.282654,717.669189 478.490662,717.669189 
	C473.772675,712.952576 470.690369,709.871155 466.596741,705.778687 
	C474.093414,702.481445 480.557068,699.182068 487.329926,696.740417 
	C513.429565,687.331604 540.341370,681.520203 568.046692,679.700073 
	C581.637390,678.807251 595.249573,678.095825 608.863159,677.777039 
	C613.710144,677.663574 617.015442,676.249939 619.553833,672.100098 
	C629.864685,655.243713 645.426208,648.220947 664.753113,647.504456 
	C675.993469,647.087769 687.261536,645.877380 698.373718,644.118042 
	C705.182129,643.039978 712.676331,641.653931 718.168518,637.916687 
	C728.079224,631.172729 739.118713,630.277466 750.128357,628.379395 
	C751.433533,628.154358 752.822449,628.360352 754.105042,628.069458 
	C757.714600,627.250610 759.034912,624.685120 758.176636,621.339600 
	C757.611755,619.137756 756.351257,617.069519 755.173218,615.076782 
	C742.854553,594.237976 753.065369,564.768616 775.939819,554.384399 
	C791.171570,547.469788 807.521423,546.972839 823.937683,548.019958 
	C825.220825,548.101807 826.542480,548.585449 827.718689,549.148682 
	C831.049133,550.743408 834.518860,552.308899 834.274658,556.939453 
	C834.027039,561.637146 831.065491,564.429138 826.969421,565.346924 
	C821.490295,566.574524 815.802979,566.843750 810.233398,567.707458 
	C806.968567,568.213684 803.629028,568.720642 800.549683,569.846741 
	C792.655762,572.733521 790.952820,575.063171 792.507568,583.286865 
	C793.484558,588.454468 792.151001,592.357239 789.338623,596.259277 
	C787.430908,598.906250 785.576172,601.591248 783.098083,605.110901 
	C785.734802,606.212952 787.616821,607.228394 789.625916,607.786865 
	C792.823181,608.675781 796.171814,609.043213 799.338074,610.016296 
	C807.030945,612.380859 808.287659,615.043518 805.514160,622.470337 
	C804.471130,625.263489 803.330200,628.020020 802.250793,630.750488 
	C810.165405,635.178040 842.142456,636.054932 859.206848,631.047607 
	C855.639099,630.142700 852.114258,628.980225 848.496155,628.378296 
	C834.279602,626.013245 832.318176,622.011108 839.165100,608.914612 
	C839.462402,608.346008 839.537354,607.661133 839.721680,607.009827 
	C838.745178,602.013794 834.166626,601.781738 830.633179,600.330811 
	C821.087097,596.410889 819.924683,592.369324 827.440369,585.255249 
	C836.099792,577.058594 841.510071,567.570129 841.585815,555.545898 
	C841.614136,551.049377 843.864014,548.652466 847.600220,547.486938 
	C853.893860,545.523560 860.267883,542.632141 866.676392,542.442871 
	C886.630859,541.853271 906.617798,542.301758 926.590881,542.486389 
	C928.863342,542.507385 931.126953,543.411133 933.395935,543.899719 
	C936.544067,544.577576 938.301636,546.827271 937.420898,549.658875 
	C936.762329,551.775879 934.775208,554.242004 932.788696,554.996216 
	C930.127319,556.006775 926.896729,555.597351 923.907959,555.651306 
	C915.914062,555.795471 907.850281,555.285583 899.955688,556.224548 
	C896.494751,556.636230 892.338928,559.233521 890.373535,562.116455 
	C888.024658,565.561951 891.273987,568.934204 894.035217,571.491699 
	C899.545532,576.595215 899.415955,582.643921 896.632263,588.829773 
	C894.866760,592.752991 892.285339,596.300598 890.231934,600.104187 
	C882.462524,614.495911 886.720215,628.822205 902.089600,634.367188 
	C911.542664,637.777771 922.128906,638.325256 932.287354,639.375854 
	C936.781860,639.840759 941.488159,638.442505 946.077759,637.753113 
	C951.061646,637.004517 955.760132,635.652649 958.631226,630.434326 
	C955.830444,626.173523 951.346985,626.361023 947.255798,625.747253 
	C943.326904,625.157776 939.333984,624.917236 935.449707,624.127563 
	C930.611450,623.143799 928.176331,619.852539 927.706604,614.967651 
	C927.244446,610.162659 928.772766,606.324524 933.233032,604.228821 
	C936.220398,602.825256 939.553101,602.164490 942.564270,600.802002 
	C947.957947,598.361572 948.921631,595.559021 945.754150,590.585693 
	C943.811218,587.534912 941.158752,584.918884 938.713196,582.208435 
	C931.924561,574.684326 931.771301,569.353699 938.385071,562.155457 
	C944.662659,555.323242 950.948792,548.495361 957.381714,541.810486 
	C962.393066,536.602844 968.249695,533.220703 975.901550,533.624023 
	C984.210938,534.062012 992.562683,533.834839 1000.851013,534.477295 
	C1004.718750,534.776978 1008.769836,535.898193 1012.175110,537.706665 
	C1014.027466,538.690369 1015.798645,542.002563 1015.593506,544.064209 
	C1015.394470,546.064514 1012.958801,548.618530 1010.899231,549.479614 
	C1007.614624,550.852905 1003.735535,550.718872 1000.271362,551.764282 
	C990.974976,554.569702 987.150024,562.998962 992.237366,571.224365 
	C997.061279,579.023804 997.018127,585.761597 992.226135,593.478394 
	C988.339294,599.737488 989.510010,602.474854 995.800049,606.527527 
	C997.750854,607.784485 999.936462,608.671753 1001.980713,609.790100 
	C1011.880432,615.205872 1012.976257,617.764160 1010.413940,629.171753 
	C1010.200378,630.122498 1010.198242,631.120850 1010.102234,632.054504 
	C1037.855835,645.435547 1061.828735,638.481995 1070.144409,607.590759 
	C1065.495483,610.114685 1061.614624,612.351379 1057.621094,614.364258 
	C1047.225586,619.604126 1030.122070,615.853210 1023.289246,606.516174 
	C1018.729370,600.285278 1019.519287,593.302063 1022.157166,586.515137 
	C1023.209778,583.806763 1024.847778,581.325989 1026.590088,578.043030 
	C1024.586792,577.356750 1023.181641,576.581360 1021.712341,576.430420 
	C1018.147461,576.064209 1013.584229,577.102844 1012.416016,572.539490 
	C1011.118103,567.469360 1010.226685,561.998901 1014.882324,557.623108 
	C1018.037598,554.657654 1021.299377,551.732605 1024.007202,548.380432 
	C1028.329712,543.029175 1031.583862,537.960022 1031.232056,529.778564 
	C1030.592529,514.903992 1032.956787,500.050079 1040.905273,486.627289 
	C1044.914062,479.857605 1050.237793,475.292053 1057.706299,473.639679 
	C1066.070068,471.789307 1074.585205,470.622009 1083.124268,469.141907 
	C1082.226196,458.787537 1079.879639,449.024841 1072.184204,440.609131 
	C1065.994629,433.840271 1066.511475,424.928528 1070.940063,417.282928 
	C1073.609619,412.674255 1073.906250,408.876373 1072.244141,404.176392 
	C1070.217896,398.446808 1068.959351,392.335602 1071.950928,386.709076 
	C1073.882690,383.075745 1076.734863,379.622101 1079.945068,377.049316 
	C1085.000977,372.997528 1088.153931,368.447998 1087.665405,361.792938 
	C1086.994263,352.652069 1090.490479,346.916504 1099.750977,343.833588 
	C1104.756714,342.167084 1109.311401,338.060944 1113.111572,334.129456 
	C1117.984497,329.088379 1123.547363,325.402405 1130.235596,324.661896 
	C1153.989502,322.031982 1177.770264,318.637512 1201.605225,318.021790 
	C1227.489868,317.353088 1253.447754,319.419525 1279.370605,320.378937 
	C1294.646240,320.944275 1309.916016,321.667053 1325.187744,322.334564 
	C1351.411621,323.480743 1377.632202,324.704803 1403.859253,325.769836 
	C1422.128662,326.511688 1440.425049,326.731018 1458.670776,327.827881 
	C1465.510620,328.239044 1472.501343,329.743866 1478.957031,332.053467 
	C1487.511475,335.113831 1493.189453,341.560211 1495.079834,350.564331 
	C1520.020020,358.163025 1523.791626,363.969482 1518.390381,386.854034 
	C1519.799438,387.783142 1521.254028,389.150787 1522.979370,389.808838 
	C1530.249878,392.581787 1533.400146,398.732361 1533.122192,405.473846 
	C1532.852783,412.015015 1533.620728,419.487671 1526.621094,424.402069 
	C1522.047607,427.613159 1523.007690,432.734039 1525.298096,437.109131 
	C1528.552002,443.324951 1528.342163,449.918701 1528.378296,456.596436 
	C1528.420288,464.356476 1525.873535,470.231110 1518.048340,472.969940 
	C1516.859985,473.385864 1515.875000,474.383301 1514.128418,475.562531 
	C1514.797119,478.388672 1515.331543,481.240540 1516.150269,484.008362 
	C1520.112671,497.404449 1515.942261,506.017670 1502.615723,510.122040 
	C1496.324097,512.059753 1489.624756,512.667297 1483.116455,513.910645 
	C1481.207397,514.275330 1479.320068,514.753784 1476.500366,515.387451 
	C1477.698730,519.542053 1478.758057,523.245300 1479.835815,526.943176 
	C1481.045776,531.093689 1482.565186,535.178955 1483.436279,539.398621 
	C1485.851440,551.098633 1483.738525,555.543579 1473.445679,561.550232 
	C1471.435791,562.723145 1469.459106,563.954102 1467.432739,565.097534 
	C1462.994995,567.601624 1461.529419,571.114624 1463.481201,575.969360 
	C1467.817505,586.756165 1471.838501,597.677795 1476.460327,608.339722 
	C1483.084717,623.620667 1489.728149,638.872620 1492.621582,655.400208 
	C1493.476929,660.286804 1494.130615,665.283936 1494.123657,670.229370 
	C1494.111694,678.677734 1491.532227,681.405029 1482.922241,682.100830 
	C1476.959229,682.582642 1470.932861,682.253662 1464.936035,682.359253 
	C1462.995605,682.393433 1461.059326,682.657166 1458.831299,682.839661 
	C1456.525024,689.481934 1458.015015,695.662170 1459.108643,701.767639 
	C1461.569214,715.502869 1464.462646,729.164673 1466.689331,742.935730 
	C1467.636108,748.791382 1467.837646,754.872192 1467.516357,760.803955 
	C1467.024658,769.875366 1463.342041,774.262024 1454.463623,775.801819 
	C1446.314331,777.215027 1437.961182,778.332031 1429.721680,778.191528 
	C1398.123779,777.652771 1366.528809,776.725708 1334.948608,775.527649 
	C1328.360840,775.277649 1323.958496,777.494568 1319.315308,781.959106 
	C1286.940063,813.088379 1254.261597,843.902344 1221.706543,874.845032 
	C1200.000122,895.476562 1178.342896,916.159851 1156.652222,936.808105 
	C1138.614258,953.979431 1120.559814,971.133301 1102.764526,989.173706 
	C1121.763062,985.892944 1140.273438,979.773865 1159.945312,981.931152 
	C1163.030396,978.011108 1165.742676,974.273865 1168.752075,970.793579 
	C1179.344727,958.543762 1193.095947,951.323669 1208.339478,946.820007 
	C1215.010132,944.849121 1221.924438,942.752258 1228.773315,942.586914 
	C1236.478394,942.400879 1240.922363,938.435852 1245.099243,933.125183 
	C1279.188477,889.782288 1307.997803,843.190857 1331.142456,793.124695 
	C1336.410278,781.729065 1337.471802,781.273987 1350.025024,781.675232 
	C1398.619629,783.228638 1442.779785,798.049622 1482.341919,826.158325 
	C1515.922607,850.017334 1543.461914,879.505005 1562.803101,916.135559 
	C1569.529297,928.874207 1573.878174,942.427551 1574.344238,957.050903 
	C1574.583740,964.562195 1573.516357,971.809143 1569.500977,978.108398 
	C1567.934326,980.566223 1564.662109,982.631042 1561.774780,983.396973 
	C1556.925659,984.683350 1554.613037,982.375244 1554.368896,977.041992 
	C1554.033936,969.727783 1554.048096,962.394531 1553.583008,955.090454 
	C1553.273926,950.237732 1552.478638,945.389832 1548.425659,939.233521 
	C1545.099365,949.423889 1544.031494,957.483276 1544.846191,966.248413 
	C1546.036499,979.056763 1546.046143,991.974792 1546.579590,1005.358887 
	C1537.695435,1004.586243 1530.234131,1003.937378 1522.394897,1003.255676 
	C1521.565430,988.214905 1520.768799,973.767883 1519.942871,958.790222 
	C1514.374634,959.858582 1514.390747,963.303467 1514.326660,966.520691 
	C1514.061035,979.841064 1513.874390,993.163025 1513.674927,1006.484619 
	C1513.635010,1009.150696 1513.738770,1011.820190 1513.651001,1014.483948 
	C1513.187622,1028.556885 1508.646851,1033.754761 1493.694580,1036.631592 
	C1488.882202,1052.995972 1483.963989,1069.719971 1478.814453,1087.230957 
	C1739.823975,1087.230957 1999.355469,1087.230957 2259.703369,1087.230957 
	C2260.101318,1081.112183 2260.478760,1075.306152 2260.892578,1068.945068 
	C2267.875244,1068.945068 2274.366943,1068.945068 2281.750977,1068.945068 
	C2281.750977,1074.866699 2281.750977,1080.657104 2281.750977,1087.093628 
	C2287.424561,1087.464233 2292.274658,1087.781006 2298.342529,1088.177368 
	C2298.342529,1093.656982 2298.342529,1098.888550 2298.342529,1104.120239 
	C2298.342529,1109.071411 2298.342529,1114.022583 2298.342529,1119.625854 
	C2293.524658,1120.049316 2289.359863,1120.415405 2284.457520,1120.846436 
	C2284.138916,1123.766846 2283.954102,1126.635620 2283.496338,1129.460205 
	C2281.323486,1142.861694 2270.729980,1149.266968 2257.790039,1145.064087 
	C2257.475098,1144.961792 2257.156494,1144.831177 2256.881836,1144.649902 
	C2242.119873,1134.907104 2225.451904,1138.253906 2209.334961,1137.630981 
	C2192.793457,1136.991699 2176.857666,1139.060181 2161.664307,1146.158813 
	C2158.547119,1147.615234 2154.560791,1147.592407 2150.973145,1147.603149 
	C2116.974121,1147.704834 2082.974365,1147.582397 2048.975342,1147.688965 
	C2006.322998,1147.822876 1963.669189,1147.927979 1921.019653,1148.388550 
	C1883.745972,1148.791016 1846.477417,1149.664551 1809.206787,1150.337280 
	C1772.602539,1150.997925 1736.001099,1151.917603 1699.394043,1152.282715 
	C1616.459229,1153.110107 1533.522339,1153.768311 1450.584595,1154.142334 
	C1443.820190,1154.172852 1439.377441,1156.387695 1435.360474,1161.258545 
	C1427.793945,1170.433228 1420.020874,1179.437500 1411.621094,1189.353882 
	C1408.415894,1185.441895 1405.881958,1182.496094 1403.507446,1179.427002 
	C1389.459961,1161.269653 1375.567139,1142.990845 1361.349487,1124.968018 
	C1357.478149,1120.060791 1353.081543,1115.366577 1348.182129,1111.522827 
	C1342.002808,1106.675049 1337.183105,1107.368286 1331.067261,1112.474243 
	C1330.302002,1113.113159 1329.577759,1113.817627 1328.921021,1114.567505 
	C1322.621460,1121.759521 1318.769775,1122.772949 1310.087891,1113.340942 
	C1306.162964,1109.076904 1302.910156,1103.822876 1303.450317,1096.338623 
	C1307.169800,1096.338623 1310.748535,1096.338623 1314.327271,1096.338623 
	C1359.993042,1096.338379 1405.658691,1096.365479 1451.324341,1096.290894 
	C1455.373047,1096.284302 1460.107300,1097.688843 1463.435181,1091.534668 
	C1461.212524,1090.255371 1459.283325,1088.520874 1457.077515,1088.030518 
	C1454.207153,1087.392456 1451.117432,1087.677002 1448.122070,1087.676758 
	C1305.125000,1087.666016 1162.127930,1087.667114 1019.130798,1087.671143 
	C1016.465027,1087.671265 1013.795959,1087.655884 1011.134216,1087.775879 
	C1007.720947,1087.929810 1005.452332,1089.432007 1005.291748,1094.073242 
	C1007.051819,1094.746704 1009.018066,1095.918335 1011.103516,1096.196289 
	C1014.052856,1096.589722 1017.090149,1096.336426 1020.089905,1096.336548 
	C1102.754883,1096.339111 1185.419800,1096.338745 1268.084839,1096.338745 
	C1272.001099,1096.338745 1275.917236,1096.338745 1280.976440,1096.338745 
	C1278.125488,1109.307617 1277.657837,1121.098267 1284.377441,1133.183472 
	C1276.367798,1133.841553 1272.163696,1129.786499 1268.091309,1125.548096 
	C1259.078857,1116.168335 1255.711914,1116.028931 1246.908081,1125.824219 
	C1244.122803,1128.923218 1242.488525,1133.056519 1240.311157,1136.744141 
	C1233.967529,1133.581665 1227.031616,1130.124023 1220.077026,1126.656982 
	C1213.988770,1133.363159 1213.624146,1140.098267 1214.904663,1147.123535 
	C1217.793457,1162.972168 1226.170898,1176.216919 1235.574219,1188.779663 
	C1241.908203,1197.241699 1247.861572,1206.161621 1257.203491,1212.005859 
	C1259.549927,1213.473633 1261.285034,1216.410034 1262.533691,1219.036499 
	C1264.953613,1224.126709 1263.724487,1228.451416 1258.504150,1230.571655 
	C1253.699463,1232.522949 1248.294434,1233.971802 1243.153076,1233.974243 
	C1145.165161,1234.020752 1047.177124,1233.681763 949.189087,1233.712158 
	C860.871216,1233.739502 772.553528,1234.117188 684.235718,1234.324951 
	C682.588867,1234.328735 680.941650,1234.141357 677.899292,1233.959961 
	C688.224487,1205.463379 700.672119,1178.486328 711.561401,1149.587280 
	C706.131592,1148.434082 701.456116,1147.051880 696.684021,1146.489380 
	C660.264099,1142.197144 628.225830,1150.902466 601.625305,1177.484863 
	C594.933472,1184.172363 586.355225,1189.249634 578.014832,1193.950806 
	C561.568726,1203.220459 544.936401,1199.566040 529.373047,1191.680664 
	C516.973999,1185.398682 505.487762,1177.315063 492.628326,1169.206787 
	C485.832947,1162.549072 479.168976,1163.057495 472.476624,1166.292847 
	C471.158051,1166.930176 469.645905,1169.981934 470.136536,1170.932495 
	C471.025146,1172.653931 473.275208,1174.522339 475.102661,1174.684326 
	C477.166870,1174.867310 479.328827,1172.937988 481.562012,1172.469238 
	C484.627655,1171.825684 487.800262,1171.691895 490.927032,1171.339600 
M876.843262,1154.246338 
	C877.380188,1153.030884 877.873596,1151.793945 878.461365,1150.603516 
	C881.767456,1143.908203 882.490356,1143.582275 888.985474,1146.745728 
	C892.568970,1148.491089 895.921387,1150.711060 899.505493,1152.454834 
	C908.033875,1156.604492 912.356995,1154.825195 915.619507,1146.143555 
	C916.378052,1144.125244 917.426758,1142.215942 918.639038,1139.620361 
	C922.930420,1141.838013 926.466309,1143.591675 929.931274,1145.475952 
	C933.730530,1147.541992 937.370605,1149.923218 941.259033,1151.795288 
	C943.921814,1153.077148 946.830566,1154.179565 949.734924,1154.562988 
	C957.252380,1155.555786 961.885986,1149.846191 960.444580,1142.406494 
	C959.153870,1135.744507 954.319519,1129.727661 956.705078,1120.958496 
	C960.027100,1122.512451 963.242493,1123.308350 965.518921,1125.221436 
	C971.113647,1129.923218 976.257935,1135.158813 981.621338,1140.138916 
	C983.809509,1142.170776 985.888184,1144.422607 988.377197,1146.008789 
	C995.149536,1150.324829 1004.438171,1149.011353 1008.210266,1143.813477 
	C1011.543457,1139.220581 1011.183838,1130.934082 1003.501648,1125.675415 
	C1001.875366,1124.562134 1000.534912,1123.019897 999.107300,1121.629517 
	C973.350281,1096.543335 947.613770,1071.436157 921.839783,1046.367432 
	C914.210388,1038.946655 906.448975,1031.661743 898.811829,1024.248901 
	C896.393372,1021.901550 894.328552,1020.110168 890.257812,1020.573853 
	C877.754272,1021.998352 865.163513,1022.645630 852.613159,1023.674805 
	C846.007263,1024.216553 839.407654,1024.857300 832.817993,1025.570923 
	C815.372620,1027.460327 807.256836,1041.949341 807.651306,1056.230835 
	C807.936279,1066.547607 807.899658,1076.879395 808.480652,1087.177734 
	C808.632385,1089.867554 810.023315,1092.885864 811.748596,1095.024170 
	C823.643005,1109.766113 835.624207,1124.445068 847.908630,1138.861938 
	C852.858887,1144.671387 858.408264,1150.035645 864.132751,1155.095947 
	C867.591980,1158.153687 871.884094,1161.146240 876.843262,1154.246338 
M1235.552979,704.347229 
	C1243.027954,704.103333 1250.502930,703.859375 1259.657959,703.560669 
	C1252.615112,688.783997 1246.394653,675.732544 1240.011719,662.340454 
	C1236.199951,662.340454 1232.914917,662.352051 1229.630005,662.338318 
	C1219.074219,662.294189 1208.433960,663.070190 1197.981445,662.005981 
	C1180.161377,660.191650 1164.804565,652.966553 1153.875610,638.014160 
	C1144.902222,625.737061 1145.535889,613.077332 1155.690796,601.764099 
	C1157.317871,599.951294 1158.697754,597.916504 1160.973999,594.972839 
	C1146.446533,593.387390 1133.845703,594.795288 1121.879517,600.312317 
	C1113.210815,604.308960 1107.959961,610.968567 1105.834717,620.581482 
	C1103.150391,632.723999 1103.353516,644.519958 1109.199463,655.487488 
	C1113.540771,663.632019 1118.502197,671.661865 1124.428101,678.697693 
	C1134.589233,690.762024 1141.570801,704.063660 1143.195190,719.726685 
	C1144.000122,727.488464 1143.335083,735.402710 1143.335083,743.258850 
	C1154.349731,745.208374 1233.200562,744.752197 1241.710327,742.202087 
	C1236.763916,737.663635 1232.234985,733.819702 1228.079224,729.607544 
	C1223.890137,725.361755 1219.612549,721.071960 1216.210938,716.215027 
	C1212.242798,710.549194 1214.009033,707.118591 1220.913208,705.892456 
	C1225.140747,705.141663 1229.449585,704.847961 1235.552979,704.347229 
M1115.660400,529.099060 
	C1114.788452,524.890564 1114.196655,520.599670 1112.987305,516.490479 
	C1110.299194,507.356873 1107.446411,505.777710 1097.668579,507.222260 
	C1095.377197,507.560791 1093.055298,507.702759 1090.744141,507.895630 
	C1081.765747,508.644897 1081.772949,508.501678 1077.689575,500.707733 
	C1076.085083,497.645355 1073.747803,494.966980 1071.913574,492.354980 
	C1061.861572,495.785278 1055.117920,500.865021 1053.138306,510.926453 
	C1051.553955,518.979431 1052.353638,522.131531 1059.964111,525.014038 
	C1069.040649,528.451782 1072.983398,534.209778 1072.454956,543.934204 
	C1072.106079,550.356506 1074.969482,553.537903 1081.107788,553.482544 
	C1088.328979,553.417419 1095.657227,552.615967 1102.716553,551.098694 
	C1108.565308,549.841553 1112.234253,545.236450 1113.940063,539.470886 
	C1114.779663,536.633301 1115.107300,533.644226 1115.660400,529.099060 
M1185.702271,998.719055 
	C1193.199219,990.067017 1203.946655,983.395630 1204.358154,968.053589 
	C1201.198975,970.712769 1199.343262,971.995911 1197.822388,973.597046 
	C1177.592896,994.893188 1152.914185,1008.699158 1124.867676,1016.665405 
	C1100.779175,1023.507629 1076.371460,1027.589111 1051.164062,1024.415161 
	C1045.854858,1023.746704 1040.389771,1024.317993 1034.513916,1024.317993 
	C1035.929199,1030.826538 1040.514771,1030.899780 1044.058594,1031.701416 
	C1057.049072,1034.640503 1070.203491,1036.018311 1083.588501,1035.806274 
	C1121.421631,1035.206177 1155.533936,1024.517944 1185.702271,998.719055 
M1205.729858,771.660156 
	C1203.888184,771.899109 1202.046631,772.138000 1199.202026,772.507080 
	C1206.559326,793.617493 1219.307983,808.610107 1238.847656,819.369934 
	C1249.083862,804.379333 1250.392212,788.617920 1251.563232,771.654480 
	C1236.086792,771.654480 1221.836792,771.654480 1205.729858,771.660156 
M780.647095,894.246887 
	C779.258667,893.328613 777.985168,892.088806 776.462952,891.544678 
	C767.182434,888.227173 764.199280,881.060181 764.114136,871.979370 
	C764.095459,869.987244 763.707275,867.994751 763.741150,866.006714 
	C764.000671,850.789734 750.096252,847.754517 740.772034,852.285950 
	C730.305725,857.372375 729.113342,863.320740 737.552124,871.052551 
	C748.091064,880.708557 758.575989,890.432373 769.364624,899.804138 
	C778.205383,907.483765 787.456543,914.690735 796.525818,922.107239 
	C794.761963,910.807495 789.259460,902.375122 780.647095,894.246887 
M836.899658,668.259399 
	C820.724609,668.259399 804.549561,668.259399 787.418030,668.259399 
	C788.254944,672.464478 788.800293,675.204407 789.292908,677.679749 
	C807.891785,679.580627 857.613159,678.882568 859.879150,676.147888 
	C859.141602,673.897278 858.263000,671.216248 857.294006,668.259399 
	C850.785095,668.259399 844.818909,668.259399 836.899658,668.259399 
M549.456848,1182.391479 
	C555.331726,1181.630859 561.455139,1181.659180 567.017273,1179.906250 
	C573.661987,1177.812012 576.472595,1171.057129 575.705811,1162.698364 
	C575.169189,1156.849243 572.470398,1153.268311 566.605774,1152.604492 
	C560.972168,1151.966797 555.209717,1152.466675 548.100403,1152.466675 
	C553.869446,1160.830933 559.027283,1167.409790 559.029297,1177.579956 
	C553.347900,1177.579956 547.483948,1178.809814 542.508972,1177.233765 
	C537.546936,1175.661743 533.475586,1171.278076 529.013733,1168.127075 
	C531.704712,1178.227783 539.006897,1181.330322 549.456848,1182.391479 
M859.002625,757.795837 
	C864.633606,757.795837 870.265381,757.856812 875.895264,757.778259 
	C881.257263,757.703430 886.617249,757.482971 892.276855,757.317749 
	C890.927246,749.858459 887.272949,748.038147 881.436401,748.118469 
	C863.553162,748.364441 845.664429,748.189758 827.778015,748.246887 
	C826.041687,748.252441 824.306763,748.730469 822.464844,749.005005 
	C824.057129,756.111633 827.893982,758.265137 834.161194,757.899536 
	C841.753662,757.456604 849.391785,757.795349 859.002625,757.795837 
M915.521362,798.317505 
	C916.703125,798.141296 917.884827,797.965149 919.461487,797.730164 
	C917.042603,790.295532 912.990112,787.183655 905.403687,787.507202 
	C892.471741,788.058838 879.499207,787.658691 866.543762,787.658447 
	C861.387207,787.658386 856.230652,787.658447 850.452087,787.658447 
	C856.679688,798.266785 856.679565,798.311218 865.957764,798.331177 
	C881.902893,798.365479 897.848206,798.338135 915.521362,798.317505 
M1183.478394,448.124115 
	C1186.381104,450.015076 1189.246704,453.475250 1192.192383,453.544556 
	C1212.738647,454.028137 1233.301392,453.799500 1253.858887,453.823486 
	C1258.425415,453.828827 1260.199463,451.286682 1260.595215,446.687103 
	C1234.819458,446.687103 1209.384644,446.687103 1183.478394,448.124115 
M1037.866699,914.210510 
	C1031.247070,914.208374 1024.626953,914.158020 1018.007996,914.217651 
	C1011.306274,914.278076 1004.564758,913.927124 997.631470,915.711243 
	C1003.486511,919.864197 1009.410828,924.680603 1015.759155,925.325867 
	C1028.734497,926.644958 1041.937744,925.721375 1057.316406,925.721375 
	C1050.562256,920.393311 1046.464966,915.313965 1037.866699,914.210510 
M871.373657,713.658630 
	C870.492432,708.862427 867.531982,707.513855 862.835022,707.577637 
	C846.511292,707.799438 830.182678,707.660156 813.855896,707.658447 
	C809.645691,707.658020 805.435425,707.658447 801.094971,707.658447 
	C801.654663,714.527222 804.709412,716.560364 810.450867,716.433411 
	C824.105408,716.131470 837.772034,716.436096 851.431824,716.297180 
	C858.043274,716.229919 864.650146,715.715759 871.373657,713.658630 
M955.824280,878.257812 
	C952.138672,878.306824 948.453003,878.355835 943.327576,878.424011 
	C950.367004,886.200256 956.977905,889.083435 965.681458,888.567688 
	C976.903015,887.902710 988.194092,888.457703 999.453918,888.350403 
	C1001.442383,888.331482 1003.424500,887.642395 1005.517700,887.242126 
	C1000.483276,879.093689 993.591003,877.664978 985.433838,878.134888 
	C976.190918,878.667358 966.893616,878.257812 955.824280,878.257812 
M1258.748047,417.533356 
	C1248.132324,417.533325 1237.516724,417.532196 1226.901001,417.533539 
	C1215.290039,417.535004 1203.679077,417.505615 1192.068359,417.562897 
	C1188.856323,417.578735 1185.160767,417.141174 1185.101562,422.831757 
	C1187.283081,423.154266 1189.435181,423.743195 1191.588745,423.749329 
	C1215.142090,423.816345 1238.695679,423.796021 1262.249268,423.784973 
	C1263.905029,423.784180 1265.841064,424.180511 1267.141479,423.468903 
	C1268.574463,422.684845 1269.423950,420.834290 1271.573120,418.135223 
	C1266.522339,417.856506 1263.598755,417.695190 1258.748047,417.533356 
M905.936951,837.638550 
	C903.181641,837.838196 900.426270,838.037903 897.108948,838.278320 
	C899.720581,843.902222 903.659912,844.463806 908.220154,844.420654 
	C922.827881,844.282227 937.437866,844.400269 952.046570,844.333923 
	C954.105713,844.324524 956.162781,843.839478 958.447632,843.545410 
	C956.511230,838.086121 952.780334,837.587891 948.572571,837.612488 
	C934.960083,837.692078 921.346863,837.639832 905.936951,837.638550 
M1244.760864,392.164734 
	C1222.217285,392.528015 1199.673462,392.886383 1177.131470,393.326843 
	C1176.913330,393.331055 1176.716553,394.424866 1176.244263,395.761749 
	C1204.697021,395.761749 1232.885620,395.761749 1261.888550,395.761749 
	C1256.958618,392.171967 1256.958618,392.171967 1244.760864,392.164734 
M2241.733398,1119.610718 
	C2230.076172,1119.613037 2218.417969,1119.550293 2206.761963,1119.661011 
	C2203.669922,1119.690308 2199.966309,1118.896240 2198.263672,1124.042236 
	C2200.387451,1124.843384 2202.358398,1126.203735 2204.351562,1126.237427 
	C2216.338135,1126.440308 2228.329590,1126.361938 2240.319580,1126.326660 
	C2244.585449,1126.313965 2247.567871,1124.251099 2250.116699,1120.022095 
	C2247.312744,1119.851196 2245.347168,1119.731323 2241.733398,1119.610718 
M1102.559448,951.438477 
	C1093.656616,947.073303 1074.889282,945.914368 1062.438477,948.960876 
	C1072.910889,956.080139 1092.812988,958.420532 1106.083618,954.004211 
	C1105.296387,953.302856 1104.590454,952.674011 1102.559448,951.438477 
M1289.945068,446.199005 
	C1285.324829,446.347900 1283.713623,448.758179 1284.461670,453.810242 
	C1290.632324,453.810242 1296.542725,453.826141 1302.453125,453.805206 
	C1307.150513,453.788605 1309.035278,451.666260 1307.336182,446.172241 
	C1302.206909,446.172241 1296.970703,446.172241 1289.945068,446.199005 
M1288.883179,372.502533 
	C1294.294434,372.502533 1299.705566,372.502533 1305.116821,372.502533 
	C1305.165649,371.607849 1305.214478,370.713165 1305.263306,369.818512 
	C1299.167725,366.645416 1292.250488,368.254517 1285.776733,368.317871 
	C1279.410889,368.380157 1272.589111,366.416229 1266.690552,372.106842 
	C1273.443604,372.238739 1280.196777,372.370667 1288.883179,372.502533 
M1302.656616,396.515381 
	C1306.121338,395.788635 1310.351074,398.108826 1314.637695,392.880859 
	C1304.534668,391.829559 1296.094971,392.042999 1285.726929,392.523163 
	C1291.270020,398.421936 1296.507080,395.671783 1302.656616,396.515381 
M1232.666382,347.043854 
	C1242.925049,349.039185 1253.139282,347.628876 1263.368530,347.368469 
	C1257.043579,343.292816 1242.242554,342.819061 1232.666382,347.043854 
M1294.765015,422.399658 
	C1307.309692,425.481293 1310.862793,424.750244 1313.257324,417.697540 
	C1307.802734,417.697540 1302.647461,417.528229 1297.520752,417.834412 
	C1296.440552,417.898956 1295.464478,419.707581 1294.765015,422.399658 
M1210.294434,368.161438 
	C1204.024658,368.364929 1204.024658,368.364929 1199.948242,372.599030 
	C1206.179077,372.301605 1211.384155,372.053131 1216.589111,371.804688 
	C1216.649048,371.032684 1216.708862,370.260681 1216.768677,369.488678 
	C1215.119263,369.048035 1213.469971,368.607361 1210.294434,368.161438 
M1277.483643,473.977478 
	C1274.631836,474.551239 1270.712158,472.409760 1269.328979,477.098480 
	C1282.131104,478.987030 1284.860229,478.679932 1289.897949,473.976440 
	C1285.643799,473.976440 1282.403809,473.976440 1277.483643,473.977478 
M1228.247314,473.977753 
	C1226.285400,474.263367 1224.323486,474.549011 1221.197998,475.004028 
	C1229.816895,479.189270 1236.450073,478.957092 1242.635132,473.976288 
	C1237.506714,473.976288 1233.681641,473.976288 1228.247314,473.977753 
M1162.653687,453.787292 
	C1163.924927,453.683441 1165.196167,453.579590 1166.971069,453.434601 
	C1166.126465,449.394073 1165.361816,446.167297 1159.435913,446.641815 
	C1160.143433,449.223633 1160.698853,451.250458 1162.653687,453.787292 
M1188.091064,474.066010 
	C1186.415039,474.309631 1184.739014,474.553223 1182.095825,474.937439 
	C1187.380981,477.672302 1187.380981,477.672302 1191.697388,476.172302 
	C1190.878052,475.520691 1190.122803,474.919983 1188.091064,474.066010 
z"/>
<path fill="#2c3e50" opacity="1.000000" stroke="none" 
	d="
M693.014038,1724.712891 
	C689.163574,1700.074585 685.611084,1676.223511 682.058533,1652.372559 
	C681.413086,1652.207886 680.767639,1652.043335 680.122192,1651.878784 
	C678.673950,1655.000977 676.880066,1658.011597 675.829346,1661.262329 
	C660.285583,1709.354980 645.151428,1757.582397 629.258728,1805.558838 
	C619.233459,1835.822754 611.302307,1866.875000 595.784729,1895.162476 
	C579.883057,1924.150513 559.291870,1948.313721 529.139648,1963.180298 
	C503.953888,1975.598267 476.942993,1981.958984 449.191681,1981.887939 
	C426.159637,1981.828857 404.059235,1974.660278 383.024231,1964.789429 
	C356.819519,1952.492676 336.650665,1933.908569 323.111877,1908.334229 
	C319.860260,1902.192017 317.078308,1895.703613 314.906647,1889.102417 
	C293.388580,1823.696411 271.915405,1758.274902 250.693283,1692.772339 
	C234.703522,1643.419678 219.087830,1593.945801 203.331100,1544.517700 
	C200.201965,1534.701660 197.420746,1524.768433 194.057800,1515.034790 
	C190.576691,1504.959229 188.680374,1503.918335 178.038788,1503.653076 
	C162.087662,1503.255615 146.138428,1502.777954 130.189728,1502.290771 
	C128.575043,1502.241333 126.969482,1501.892578 124.077393,1501.515503 
	C124.324478,1497.805176 123.923096,1494.204224 124.873085,1491.004272 
	C140.296677,1439.053467 155.887390,1387.152344 171.460312,1335.245850 
	C172.224823,1332.697632 173.113571,1330.182495 174.046097,1327.689819 
	C176.127365,1322.127197 179.691101,1319.524292 186.117508,1319.548096 
	C243.779297,1319.761230 301.442261,1319.621582 359.104675,1319.717529 
	C370.835815,1319.737061 374.637695,1322.207642 378.196533,1333.119751 
	C385.617249,1355.873169 392.671936,1378.749268 399.628204,1401.650513 
	C417.694763,1461.128418 435.595062,1520.656860 453.659668,1580.135498 
	C455.549805,1586.358887 456.815399,1593.142578 463.521210,1597.013428 
	C468.999786,1593.059814 469.732422,1586.826416 471.313110,1581.267456 
	C480.222168,1549.935913 488.068939,1518.277710 497.821686,1487.215698 
	C514.856812,1432.959473 533.010010,1379.054199 550.731934,1325.014160 
	C551.031372,1324.100830 551.802795,1323.342407 552.746704,1321.920044 
	C560.930542,1321.408081 569.507935,1320.476074 578.092163,1320.408325 
	C604.088684,1320.203247 630.090759,1320.084595 656.085266,1320.392700 
	C692.356750,1320.822754 728.623474,1321.655273 764.891663,1322.347168 
	C773.561035,1322.512573 774.860535,1324.077759 772.582031,1332.646362 
	C767.542603,1351.598022 762.268188,1370.487183 757.087219,1389.401123 
	C752.521790,1406.068115 747.936829,1422.729980 743.409363,1439.407227 
	C742.908752,1441.250977 742.728210,1443.181519 742.311096,1445.578369 
	C747.317139,1445.974487 749.176514,1442.407104 751.302673,1439.928223 
	C761.036194,1428.580078 769.755188,1416.247803 780.307678,1405.744995 
	C793.466064,1392.648560 807.592102,1380.402954 822.149963,1368.861816 
	C845.427002,1350.408203 870.709229,1334.696777 897.818909,1322.711914 
	C915.652649,1314.827515 934.759644,1309.584717 953.621460,1304.324341 
	C977.666016,1297.618652 1002.400635,1293.705444 1027.293457,1292.672729 
	C1044.819702,1291.945679 1062.559326,1293.095093 1080.031860,1294.989624 
	C1121.078125,1299.440308 1159.923462,1312.016113 1197.056396,1329.771851 
	C1226.332642,1343.770874 1252.871460,1362.006470 1277.069214,1383.651123 
	C1301.242188,1405.273438 1323.403076,1428.748901 1340.214966,1456.595459 
	C1349.120972,1471.347290 1356.234497,1487.190918 1363.929932,1502.654785 
	C1365.317139,1505.442627 1365.598755,1508.780762 1366.716187,1513.132080 
	C1362.164062,1513.353271 1358.967041,1513.642944 1355.769775,1513.644409 
	C1280.775146,1513.678833 1205.780518,1513.718018 1130.786011,1513.625854 
	C1124.505981,1513.618042 1118.224243,1512.720459 1111.948364,1512.177002 
	C1104.765015,1511.554810 1102.082764,1506.554810 1100.189575,1500.434814 
	C1090.757446,1469.945435 1081.248535,1439.479492 1071.649536,1409.042114 
	C1060.949951,1375.114014 1050.180664,1341.207520 1039.274536,1307.345459 
	C1038.038574,1303.507935 1037.366089,1298.701904 1030.782227,1297.459106 
	C1029.324219,1300.656982 1027.651855,1303.760498 1026.456909,1307.037964 
	C1019.053650,1327.342529 1011.461670,1347.585449 1004.487183,1368.037964 
	C989.565063,1411.797241 974.987610,1455.674194 960.241028,1499.493652 
	C959.394775,1502.008057 958.365173,1504.467163 957.303040,1506.900757 
	C955.816711,1510.306152 953.292725,1512.015625 949.425842,1511.694092 
	C947.108887,1511.501343 944.762512,1511.664551 942.429321,1511.664429 
	C881.433655,1511.663208 820.438049,1511.651978 759.442383,1511.682739 
	C755.605652,1511.684692 751.769043,1512.013184 747.562256,1512.206787 
	C747.752991,1518.904785 752.423584,1521.159790 755.666626,1523.927856 
	C770.841858,1536.880737 786.364929,1549.425049 801.665161,1562.232910 
	C835.311829,1590.398926 868.775818,1618.785400 902.630676,1646.698242 
	C908.341797,1651.406982 909.203735,1655.999268 907.107605,1662.342651 
	C901.157715,1680.347900 895.365784,1698.405396 889.472290,1716.429321 
	C872.208984,1769.224121 854.947144,1822.019531 837.611328,1874.790405 
	C836.262024,1878.897705 834.710632,1882.836426 837.146362,1888.054077 
	C841.158081,1885.824219 845.056152,1884.071899 848.506714,1881.675293 
	C881.856750,1858.511230 915.113831,1835.213379 948.434143,1812.006348 
	C970.833801,1796.405396 993.291138,1780.887207 1015.728882,1765.340820 
	C1017.096802,1764.392944 1018.465393,1763.424927 1019.924011,1762.632446 
	C1033.182373,1755.428101 1037.147461,1755.720581 1048.971802,1765.397461 
	C1102.494263,1809.199951 1155.966797,1853.063477 1209.472656,1896.886353 
	C1216.590698,1902.716309 1216.631470,1902.666504 1226.535400,1899.695435 
	C1224.777100,1893.498901 1223.153931,1887.206787 1221.207397,1881.016479 
	C1212.628784,1853.735840 1203.853516,1826.516602 1195.359009,1799.209961 
	C1190.545410,1783.736084 1190.727905,1783.676880 1206.504517,1783.671753 
	C1218.837036,1783.667847 1231.169678,1783.726074 1243.501953,1783.662354 
	C1326.446777,1783.233643 1409.391357,1782.700928 1492.336670,1782.356445 
	C1571.983154,1782.025635 1651.630493,1781.702881 1731.277466,1781.703735 
	C1814.923950,1781.704468 1898.570923,1781.984131 1982.216797,1782.350830 
	C2039.164185,1782.600464 2096.109863,1783.231689 2153.056641,1783.650391 
	C2189.373047,1783.917480 2225.690186,1784.107788 2262.006836,1784.332764 
	C2264.339844,1784.347168 2266.693359,1784.171631 2269.001465,1784.419678 
	C2273.220459,1784.873291 2274.868652,1786.704834 2274.814209,1791.611328 
	C2274.622070,1808.939819 2269.850098,1825.159912 2263.646484,1840.975464 
	C2252.494385,1869.407349 2236.906494,1895.557495 2216.996338,1918.478149 
	C2206.046143,1931.083740 2191.936523,1941.258667 2178.209473,1951.072632 
	C2150.231934,1971.075195 2117.659668,1979.459839 2084.402588,1985.554443 
	C2082.786377,1985.850708 2081.077148,1985.652588 2079.411133,1985.662231 
	C2040.427490,1985.886597 2001.443237,1986.033447 1962.460327,1986.349365 
	C1917.845093,1986.710938 1873.231812,1987.360474 1828.616089,1987.634033 
	C1769.301880,1987.997681 1709.986450,1988.269287 1650.671265,1988.295166 
	C1605.355225,1988.314941 1560.038208,1988.001343 1514.723267,1987.623291 
	C1488.771729,1987.406738 1462.728638,1987.997681 1436.898071,1986.005127 
	C1404.206543,1983.483276 1375.298340,1971.717651 1356.048950,1943.165527 
	C1344.976807,1926.742432 1339.660156,1908.196533 1339.844238,1888.481934 
	C1339.961792,1875.905762 1341.788086,1863.345581 1342.853516,1850.778687 
	C1343.088135,1848.009888 1343.345825,1845.242920 1343.592896,1842.475098 
	C1342.955322,1842.219116 1342.317871,1841.963135 1341.680298,1841.707153 
	C1338.036621,1846.159302 1334.272339,1850.518799 1330.768433,1855.078247 
	C1303.641235,1890.378418 1272.746704,1921.810181 1236.190308,1947.450317 
	C1199.498657,1973.184937 1159.418091,1991.043457 1115.363159,1999.875366 
	C1087.151001,2005.531006 1058.644043,2007.567017 1030.056519,2005.476562 
	C991.094421,2002.627563 953.039795,1994.524170 916.607971,1980.294189 
	C895.264771,1971.957642 874.265381,1962.553711 853.731140,1952.378906 
	C826.152649,1938.714111 804.650269,1917.169678 783.907593,1894.977173 
	C775.968506,1886.483032 768.189087,1877.782471 761.002686,1868.652100 
	C727.532104,1826.125488 705.513367,1778.117798 693.014038,1724.712891 
z"/>
<path fill="#2c3e50" opacity="1.000000" stroke="none" 
	d="
M2112.000000,1514.346191 
	C1998.084351,1514.346191 1885.168823,1514.346191 1773.171753,1514.346191 
	C1769.057251,1509.605225 1768.781494,1505.707520 1769.532715,1501.150146 
	C1775.816528,1463.036011 1791.596680,1429.649048 1818.061523,1401.319458 
	C1829.423584,1389.156860 1840.886230,1377.213623 1854.838989,1367.921021 
	C1887.546021,1346.137939 1923.603149,1333.558105 1962.380615,1328.124634 
	C1987.135864,1324.655884 2011.967529,1323.497437 2036.951660,1323.580566 
	C2108.588623,1323.818970 2180.226807,1323.646362 2251.864502,1323.708130 
	C2256.415039,1323.712036 2260.965088,1324.337280 2265.121338,1324.644409 
	C2268.098145,1332.552246 2264.897949,1338.905151 2263.104492,1345.088257 
	C2248.199951,1396.474243 2232.992188,1447.772461 2217.784912,1499.070312 
	C2214.035156,1511.719360 2210.298096,1514.314941 2196.966064,1514.324219 
	C2168.977295,1514.343628 2140.988770,1514.340210 2112.000000,1514.346191 
z"/>
<path fill="#2c3e50" opacity="1.000000" stroke="none" 
	d="
M1552.008545,1324.330933 
	C1623.324829,1324.331787 1693.643066,1324.328247 1763.961426,1324.338379 
	C1777.239624,1324.340210 1778.359619,1325.782227 1774.525024,1338.891846 
	C1758.849609,1392.482544 1743.123047,1446.058472 1727.355713,1499.622314 
	C1723.723633,1511.960571 1722.074585,1513.202271 1709.364136,1514.120239 
	C1706.378784,1514.335938 1703.373169,1514.326538 1700.376953,1514.326904 
	C1620.060791,1514.336914 1539.744629,1514.343506 1459.428467,1514.308838 
	C1455.505005,1514.307129 1451.581787,1513.928955 1446.061890,1513.643677 
	C1446.981812,1508.362549 1447.288696,1503.866943 1448.573608,1499.670776 
	C1456.457520,1473.927734 1464.639160,1448.276001 1472.573364,1422.548218 
	C1481.193726,1394.595459 1489.651367,1366.592407 1498.184937,1338.612915 
	C1498.863525,1336.388062 1499.498169,1334.144653 1500.299683,1331.963623 
	C1501.802734,1327.873413 1504.291870,1325.624634 1509.163940,1325.573853 
	C1523.115601,1325.428955 1537.062012,1324.781250 1552.008545,1324.330933 
z"/>
<path fill="#2c3e50" opacity="1.000000" stroke="none" 
	d="
M1268.000244,1662.329102 
	C1398.890503,1662.331421 1528.780884,1662.367065 1658.671143,1662.294922 
	C1675.230103,1662.285767 1672.388550,1663.641968 1669.647339,1676.020874 
	C1665.266357,1695.805420 1660.387207,1715.486084 1655.350830,1735.116455 
	C1652.598022,1745.846558 1648.940796,1748.313232 1637.422363,1748.315430 
	C1490.546387,1748.343872 1343.670410,1748.334839 1196.794434,1748.326904 
	C1194.798706,1748.326782 1192.785156,1748.367676 1190.810425,1748.132935 
	C1182.734741,1747.173096 1177.015259,1744.322144 1174.568604,1735.129517 
	C1169.189331,1714.919312 1162.471558,1695.067993 1156.530273,1675.001953 
	C1155.643433,1672.006958 1156.002075,1668.643066 1155.703979,1664.267700 
	C1161.773926,1663.549194 1166.924561,1662.437744 1172.080688,1662.411133 
	C1203.719849,1662.247559 1235.360229,1662.329224 1268.000244,1662.329102 
z"/>
<path fill="#2c3e50" opacity="1.000000" stroke="none" 
	d="
M2140.000000,1665.666504 
	C2175.635254,1665.666260 2210.271973,1665.848267 2244.904053,1665.514648 
	C2251.965576,1665.446655 2256.046875,1668.047852 2258.846924,1674.158081 
	C2268.511230,1695.247925 2273.191895,1717.574463 2275.613037,1740.477661 
	C2275.749268,1741.767578 2275.392578,1743.109375 2275.221680,1744.878784 
	C2273.755615,1745.338867 2272.260986,1746.183105 2270.742188,1746.228760 
	C2245.495117,1746.990356 2220.248535,1748.015503 2194.994629,1748.265381 
	C2128.772705,1748.920532 2062.523682,1748.312012 1996.331787,1750.013550 
	C1956.031372,1751.049438 1918.456421,1742.708984 1882.798706,1724.999146 
	C1859.389893,1713.372803 1839.281494,1696.901611 1820.977783,1678.322754 
	C1818.130981,1675.433228 1816.319092,1671.524170 1812.863525,1666.337891 
	C1841.753052,1664.520508 1868.527344,1666.883789 1895.265869,1666.393188 
	C1922.554810,1665.892090 1949.852661,1665.804077 1977.147217,1665.691284 
	C2004.122192,1665.579834 2031.098022,1665.662109 2058.073486,1665.661987 
	C2085.049072,1665.661865 2112.024414,1665.664917 2140.000000,1665.666504 
z"/>
<path fill="#2c3e50" opacity="1.000000" stroke="none" 
	d="
M1777.268799,1550.428955 
	C1816.768066,1550.796387 1855.383301,1551.638306 1893.996948,1551.572144 
	C1959.273682,1551.460205 2024.553467,1551.052490 2089.823730,1550.169922 
	C2111.298340,1549.879639 2131.552979,1553.732910 2150.452393,1563.601562 
	C2176.215332,1577.053833 2200.183594,1593.177124 2220.581787,1614.131592 
	C2223.522461,1617.152466 2225.914062,1620.707764 2229.384033,1625.046021 
	C2226.166016,1626.222168 2224.264893,1627.146118 2222.258057,1627.578003 
	C2220.663574,1627.920898 2218.939697,1627.666382 2217.273193,1627.669800 
	C2106.300781,1627.892212 1995.328369,1628.072266 1884.356201,1628.391724 
	C1871.406006,1628.428955 1858.452271,1629.715454 1845.510132,1629.565552 
	C1828.567627,1629.369507 1811.634766,1628.328979 1794.698486,1627.631104 
	C1790.975342,1627.477783 1788.890869,1625.462646 1787.258301,1622.076416 
	C1778.104248,1603.089478 1771.448730,1583.360107 1768.609253,1562.413818 
	C1767.514526,1554.338623 1768.148804,1553.321655 1777.268799,1550.428955 
z"/>
<path fill="#2c3e50" opacity="1.000000" stroke="none" 
	d="
M1565.999756,1627.680176 
	C1519.712646,1627.679443 1474.425537,1627.678955 1429.138428,1627.677856 
	C1426.807495,1627.677856 1424.472656,1627.759521 1422.146362,1627.654297 
	C1413.343384,1627.256348 1410.709595,1624.005737 1413.100342,1615.546387 
	C1416.714233,1602.758911 1420.711426,1590.078979 1424.623169,1577.377075 
	C1426.480225,1571.347412 1428.446533,1565.348999 1430.491821,1559.380371 
	C1432.430542,1553.723022 1436.057861,1551.416748 1442.465454,1551.504639 
	C1480.741699,1552.029785 1519.023804,1552.203003 1557.304565,1552.296509 
	C1603.257324,1552.408813 1649.210571,1552.314575 1695.163696,1552.328857 
	C1708.642212,1552.333008 1711.101074,1555.376465 1707.233887,1568.597900 
	C1702.945801,1583.258179 1698.120239,1597.761841 1693.457520,1612.311035 
	C1692.750366,1614.517456 1691.750122,1616.645386 1690.727295,1618.732056 
	C1687.714600,1624.877686 1683.545776,1627.974854 1675.886353,1627.879028 
	C1639.595703,1627.424927 1603.296265,1627.678589 1565.999756,1627.680176 
z"/>
<path fill="#2c3e50" opacity="1.000000" stroke="none" 
	d="
M1397.386475,1610.926392 
	C1399.088745,1627.765747 1398.602661,1628.390747 1382.698608,1628.323242 
	C1342.394653,1628.152100 1302.090332,1627.986328 1261.787964,1627.622192 
	C1249.503784,1627.511108 1237.224365,1626.790649 1224.946167,1626.268188 
	C1223.406372,1626.202759 1221.887695,1625.639648 1219.353027,1625.088135 
	C1220.570190,1622.797485 1221.013550,1620.761230 1222.275513,1619.802368 
	C1227.036987,1616.184448 1232.040161,1612.880981 1236.996216,1609.523804 
	C1262.626343,1592.162354 1288.325806,1574.902222 1313.862305,1557.404419 
	C1319.002686,1553.882202 1324.124634,1552.068481 1330.485352,1552.197510 
	C1348.432129,1552.561646 1366.390869,1552.324951 1385.486816,1552.324951 
	C1389.447754,1571.861084 1393.320312,1590.961060 1397.386475,1610.926392 
z"/>
</svg>