<svg xmlns="http://www.w3.org/2000/svg" width="28" height="32" fill="transparent" xmlns:v="https://vecta.io/nano">
  <path fill="#264de4" d="M13.983 32L2.548 28.801 0 0h28l-2.551 28.797L13.983 32z" />
  <path fill="#2965f1" d="M23.265 26.963l2.18-24.608H14v27.197l9.265-2.588z" />
  <path fill="#ebebeb"
    d="M5.842 13.037l.314 3.532H14v-3.532H5.842zm-.631-7.15l.319 3.532H14V5.887H5.21zM14 22.211l-.015.004-3.904-1.062-.25-2.817H6.312l.491 5.546 7.18 2.009.016-.004v-3.675z" />
  <path fill="#fff"
    d="M22.136 13.037l.633-7.15h-8.781V9.42h4.939l-.319 3.617h-4.62v3.532h4.316l-.407 4.581-3.909 1.063v3.675l7.186-2.007.877-9.896.085-.949z" />
</svg>
