<svg xmlns="http://www.w3.org/2000/svg" width="35" height="32" fill="transparent" xmlns:v="https://vecta.io/nano">
  <path fill="#e24329" d="M17.5 32l6.445-19.686H11.056L17.5 32z" />
  <path fill="#fc6d26" d="M17.5 32l-6.445-19.686H2.024L17.5 32z" />
  <path fill="#fca326" d="M2.024 12.314L.065 18.297c-.087.266-.087.552 0 .818s.257.498.485.662L17.5 32 2.024 12.314z" />
  <path fill="#e24329" d="M2.024 12.314h9.032L7.174.458a.67.67 0 0 0-1.269 0L2.024 12.314z" />
  <path fill="#fc6d26" d="M17.5 32l6.445-19.686h9.032L17.5 32z" />
  <path fill="#fca326"
    d="M32.976 12.314l1.958 5.982c.087.266.087.552 0 .818s-.257.498-.485.662L17.5 32l15.476-19.686z" />
  <path fill="#e24329" d="M32.976 12.314h-9.032L27.826.458a.67.67 0 0 1 1.269 0l3.881 11.857z" />
</svg>
