<svg xmlns="http://www.w3.org/2000/svg" width="28" height="32" fill="transparent" xmlns:v="https://vecta.io/nano">
  <path fill="#e535ab" fill-rule="evenodd"
    d="M16.688 3.667l6.469 3.799a2.83 2.83 0 0 1 .636-.512c1.342-.785 3.053-.319 3.832 1.046.771 1.365.313 3.105-1.028 3.898a2.78 2.78 0 0 1-.747.303v7.601a2.78 2.78 0 0 1 .739.301c1.35.793 1.808 2.533 1.028 3.898-.771 1.365-2.491 1.83-3.832 1.046-.26-.152-.494-.345-.693-.573l-6.43 3.776a2.9 2.9 0 0 1 .142.899C16.804 30.717 15.551 32 14 32s-2.804-1.275-2.804-2.852c0-.28.04-.551.113-.807l-6.467-3.798c-.185.197-.396.366-.628.503A2.78 2.78 0 0 1 .382 24c-.771-1.365-.313-3.105 1.028-3.898a2.78 2.78 0 0 1 .739-.301V12.2a2.78 2.78 0 0 1-.747-.303C.061 11.113-.397 9.365.374 8s2.49-1.83 3.832-1.046a2.83 2.83 0 0 1 .633.509l6.471-3.8c-.076-.263-.115-.536-.115-.811C11.196 1.275 12.449 0 14 0s2.804 1.275 2.804 2.852c0 .283-.04.557-.116.815zm-.674 1.171l6.485 3.808a2.9 2.9 0 0 0-.087 1.131 2.88 2.88 0 0 0 .354 1.076c.395.698 1.038 1.161 1.751 1.342v7.611l-.109.029-8.469-14.92.075-.076zm-3.951.078l-8.469 14.92-.11-.03v-7.611c.714-.18 1.357-.643 1.751-1.342a2.88 2.88 0 0 0 .354-1.078c.046-.38.016-.765-.088-1.133l6.483-3.807.08.081zm2.72.676l8.467 14.916c-.194.188-.36.404-.494.64a2.89 2.89 0 0 0-.296.752H5.539a2.89 2.89 0 0 0-.296-.752 2.87 2.87 0 0 0-.493-.637l8.469-14.919a2.77 2.77 0 0 0 1.565-.001zm1.29 21.635l6.442-3.783-.052-.187H5.535l-.029.11 6.474 3.802c.261-.277.575-.496.922-.646s.72-.227 1.098-.226c.39-.001.777.082 1.134.242a2.8 2.8 0 0 1 .94.689z" />
</svg>
