<svg xmlns="http://www.w3.org/2000/svg" width="40" height="10" fill="transparent" xmlns:v="https://vecta.io/nano">
  <path fill="#423426"
    d="M14.713.005c1.408-.039 2.785.429 3.894 1.326a6.71 6.71 0 0 1 1.387 1.66 5.97 5.97 0 0 1 2.91-2.573c1.517-.566 3.18-.556 4.69.028 1.29.534 2.473 1.313 3.487 2.295l2.396 2.258c.43.387.922.693 1.454.904.363.118.751.129 1.12.03s.703-.303.964-.588a1.45 1.45 0 0 0 .336-.99c-.015-.362-.163-.705-.414-.958a.77.77 0 0 0-.284-.157c-.104-.031-.214-.04-.321-.025s-.211.053-.303.112a.79.79 0 0 0-.233.229c-.079.159-.115.337-.102.516a.99.99 0 0 0 .174.495 1.77 1.77 0 0 1-.586-.577c-.149-.237-.242-.507-.271-.787a1.54 1.54 0 0 1 .244-.932c.178-.275.439-.481.743-.588a2.78 2.78 0 0 1 1.807-.08 2.86 2.86 0 0 1 1.493 1.054c.612 1.013.836 2.225.628 3.399a4.15 4.15 0 0 1-.535 1.552 4.02 4.02 0 0 1-1.088 1.205 7.04 7.04 0 0 1-4.3 1.178c-1.437-.051-2.854-.365-4.185-.928-2.224-.922-4.305-2.197-6.601-2.934-.797-.23-1.608-.409-2.426-.535-.614.01-1.229-.022-1.841.022-.749.066-1.486.239-2.189.514-2.335.75-4.447 2.062-6.708 2.981a10.57 10.57 0 0 1-6.064.698A5.29 5.29 0 0 1 .953 8.129C.305 7.326-.03 6.304.012 5.26A4.1 4.1 0 0 1 .804 2.5a2.85 2.85 0 0 1 1.087-.801c.419-.174.871-.243 1.321-.201.291.008.578.081.839.213s.493.321.678.553a1.56 1.56 0 0 1 .239.65 1.58 1.58 0 0 1-.064.692 2.13 2.13 0 0 1-.794.948c.102-.143.163-.313.176-.491s-.023-.355-.103-.512a.79.79 0 0 0-.247-.235c-.098-.059-.207-.095-.32-.106a.76.76 0 0 0-.334.042.78.78 0 0 0-.285.183c-.194.217-.319.49-.358.782s.011.59.142.853a1.93 1.93 0 0 0 .63.641 1.86 1.86 0 0 0 .843.277 3.28 3.28 0 0 0 2.284-1.031c1.269-1.272 2.618-2.457 4.036-3.548A7.34 7.34 0 0 1 14.713.005z" />
</svg>