<svg xmlns="http://www.w3.org/2000/svg" width="29" height="32" fill="transparent" xmlns:v="https://vecta.io/nano">
  <path fill="#430098"
    d="M26.1 0c1.585 0 2.874 1.264 2.9 2.832v.048 26.24A2.89 2.89 0 0 1 26.148 32H26.1 2.9C1.315 32 .026 30.736 0 29.168v-.048V2.88A2.89 2.89 0 0 1 2.852 0H2.9h23.2zm0 1.6H2.9c-.699 0-1.271.557-1.288 1.247v.033 26.24c0 .695.561 1.262 1.256 1.28H2.9h23.2c.7 0 1.271-.556 1.288-1.247v-.033V2.88c0-.706-.578-1.28-1.289-1.28zM7.25 20.8l3.625 3.2-3.625 3.2v-6.4zm3.222-16v9.084c1.609-.52 3.857-1.085 6.042-1.085 1.992 0 3.184.778 3.833 1.43 1.372 1.378 1.404 3.13 1.403 3.363V27.2h-3.222v-9.556C18.512 16.897 18.15 16 16.514 16c-3.243 0-6.878 1.604-6.986 1.652l-.002.001-2.276 1.024V4.8h3.222zm11.278 0c-.218 1.818-.959 3.56-2.417 5.2h-3.222c1.266-1.65 2.061-3.386 2.417-5.2h3.222z" />
</svg>