<svg xmlns="http://www.w3.org/2000/svg" width="28" height="32" fill="transparent" xmlns:v="https://vecta.io/nano">
  <path fill="#e44d26" d="M28 0l-2.551 28.797L13.983 32 2.548 28.801 0 0h28z" />
  <path fill="#f16529" d="M14 29.551l9.265-2.588 2.18-24.608H14v27.197z" />
  <path fill="#ebebeb"
    d="M9.041 9.42H14V5.887H5.21l.945 10.682H14v-3.532H9.362l-.32-3.617zm.79 8.916H6.312l.491 5.546 7.18 2.009.016-.004v-3.675l-.015.004-3.904-1.062-.25-2.817z" />
  <path fill="#fff"
    d="M13.988 16.569h4.316l-.407 4.581-3.909 1.063v3.675l7.186-2.007.877-9.896.085-.949h-8.148v3.532zm0-7.15h8.467l.314-3.532h-8.781V9.42z" />
</svg>