<svg xmlns="http://www.w3.org/2000/svg" width="29" height="32" fill="transparent" xmlns:v="https://vecta.io/nano">
  <path fill="#99425b"
    d="M27.184 15.755a2.98 2.98 0 0 0-2.981-2.979c-.106 0-.21.006-.313.017L27.984.727H10.584l4.089 12.055-.181-.006a2.98 2.98 0 0 0-.905 5.817c-.636 1.1-1.436 2.091-2.344 2.948-1.235 1.164-2.649 2.047-4.177 2.591-1.82-.934-2.68-3.012-1.904-4.834l.262-.622a2.98 2.98 0 0 0-.68-5.878 2.98 2.98 0 0 0-2.981 2.979c0 1.009.502 1.9 1.27 2.439-.738 1.678-1.822 3.435-2.16 5.471-.405 2.44-.001 5.03 2.111 6.493 4.919 3.407 10.259-2.112 15.889-3.499 2.04-.503 4.28-.422 6.078-1.462 1.35-.781 2.24-2.076 2.492-3.529.25-1.436-.114-2.866-.951-4.025.449-.535.694-1.211.693-1.909z" />
  <path fill="#fff"
    d="M26.724 21.565c-.219 1.262-.999 2.364-2.14 3.024-1.063.615-2.338.799-3.687.993l-2.2.392c-1.93.476-3.8 1.404-5.609 2.301-3.619 1.796-6.744 3.347-9.691 1.306-2.159-1.495-2.059-4.26-1.807-5.776.233-1.404.863-2.697 1.473-3.948l.309-.639c.307.123.629.203.958.24-.62 2.045.355 4.269 2.402 5.32l.28.144.297-.106c1.619-.576 3.11-1.5 4.433-2.747.855-.806 1.59-1.698 2.195-2.651a3.72 3.72 0 0 0 .555.042c1.879 0 3.435-1.404 3.676-3.216h2.36c.241 1.813 1.797 3.217 3.676 3.217a3.69 3.69 0 0 0 2.115-.664c.417.853.572 1.812.406 2.767zM4.743 13.526c1.242 0 2.253 1.01 2.253 2.251 0 .43-.123.85-.356 1.212-.374.584-1.011.984-1.742 1.034l-.155.006c-.277 0-.542-.05-.787-.142-.494-.186-.907-.537-1.169-.995-.195-.339-.297-.723-.296-1.114 0-1.241 1.011-2.251 2.253-2.251zm7.495 2.23c0-1.128.834-2.064 1.919-2.226a2.25 2.25 0 0 1 2.112.847c.103.132.191.275.263.427.14.298.213.623.212.953 0 .18-.022.355-.062.523a2.26 2.26 0 0 1-1.964 1.717c-.075.008-.15.011-.227.011a2.24 2.24 0 0 1-1.221-.361 2.25 2.25 0 0 1-1.032-1.89zm9.404-2.677a3.71 3.71 0 0 0-1.02 1.714c-.849-.031-1.699-.031-2.549 0-.191-.707-.586-1.33-1.117-1.803l2.331-4.71 2.355 4.8zM11.599 1.455h15.369l-3.63 10.697c-.156.037-.31.085-.46.142l-3.586-7.309-3.596 7.265a3.68 3.68 0 0 0-.48-.129L11.599 1.455zm14.857 14.301c0 .226-.034.444-.096.649a2.26 2.26 0 0 1-.868 1.196 2.24 2.24 0 0 1-1.289.406c-1.04 0-1.918-.708-2.176-1.667-.051-.19-.077-.387-.077-.584 0-.308.062-.601.175-.868.058-.137.129-.268.213-.39a2.25 2.25 0 0 1 1.865-.992l.211.01c1.144.107 2.042 1.071 2.042 2.241zm1.456 0c0-1.809-1.305-3.319-3.023-3.641L29 0H9.568l4.117 12.139c-1.659.369-2.903 1.85-2.903 3.617 0 1.327.702 2.492 1.753 3.147-.506.753-1.106 1.462-1.793 2.11-1.09 1.027-2.305 1.807-3.614 2.32-1.319-.828-1.876-2.389-1.298-3.749l.131-.307c1.449-.505 2.491-1.883 2.491-3.5 0-2.044-1.664-3.706-3.709-3.706s-3.709 1.662-3.709 3.706c0 1.031.424 1.965 1.107 2.638l-.388.806c-.624 1.281-1.332 2.734-1.6 4.346-.532 3.203.326 5.764 2.415 7.21C3.836 31.655 5.123 32 6.418 32c2.439 0 4.906-1.224 7.319-2.422 1.738-.862 3.535-1.754 5.31-2.191.66-.163 1.34-.261 2.059-.364 1.427-.206 2.902-.418 4.209-1.174 1.515-.877 2.552-2.347 2.845-4.034.252-1.448-.051-2.899-.79-4.129a3.68 3.68 0 0 0 .543-1.929z" />
</svg>