<svg xmlns="http://www.w3.org/2000/svg" width="37" height="32" fill="transparent" xmlns:v="https://vecta.io/nano">
  <path fill="#007fff"
    d="M31.186 21.85a1.03 1.03 0 0 0 .516-.888l.018-5.951a1.03 1.03 0 0 1 .516-.888l3.224-1.853a1.03 1.03 0 0 1 .514-.137c.18 0 .357.048.513.138a1.03 1.03 0 0 1 .513.89V23.98a1.03 1.03 0 0 1-.516.892l-12.168 6.992c-.155.089-.331.136-.511.137a1.03 1.03 0 0 1-.511-.136L13.745 26.4a1.03 1.03 0 0 1-.518-.892v-5.455c.018-.004.026-.007.026-.014v-.006l7.871-4.531c-.006-.015-.008-.016-.01-.018l.013-5.354a1.03 1.03 0 0 0-.512-.894c-.156-.091-.334-.139-.515-.139a1.03 1.03 0 0 0-.515.138l-5.845 3.37c-.156.09-.333.137-.513.137s-.357-.047-.513-.137L6.85 9.227c-.156-.09-.333-.137-.514-.137s-.357.048-.513.138a1.03 1.03 0 0 0-.514.89v9.666a1.03 1.03 0 0 1-.512.89c-.156.09-.332.138-.513.139s-.357-.046-.514-.135L.518 18.815c-.158-.09-.289-.22-.379-.377A1.03 1.03 0 0 1 0 17.921L.029 1.026A1.03 1.03 0 0 1 .543.138C.699.048.875.001 1.055 0s.357.047.513.136l11.147 6.405c.156.09.332.137.512.137s.356-.047.512-.137L24.882.137c.156-.09.333-.137.514-.137s.357.048.513.139a1.03 1.03 0 0 1 .513.891v16.899a1.03 1.03 0 0 1-.515.892l-5.836 3.362a1.03 1.03 0 0 0-.515.893 1.03 1.03 0 0 0 .14.515c.091.157.222.286.379.376l3.219 1.834a1.03 1.03 0 0 0 1.021-.002l6.871-3.947zm.675-15.159a1.03 1.03 0 0 0 .521.894c.158.09.337.136.519.133a1.03 1.03 0 0 0 .516-.146l3.083-1.851a1.03 1.03 0 0 0 .366-.375c.088-.154.134-.329.134-.506V1.068a1.03 1.03 0 0 0-.522-.893c-.158-.089-.337-.135-.519-.133a1.03 1.03 0 0 0-.515.146l-3.083 1.851a1.03 1.03 0 0 0-.5.881v3.772-.001z" />
</svg>