<svg xmlns="http://www.w3.org/2000/svg" width="32" height="32" fill="transparent" xmlns:v="https://vecta.io/nano">
  <path fill="#376660"
    d="M16 32c8.837 0 16-7.163 16-16S24.837 0 16 0 0 7.164 0 16s7.164 16 16 16zm0-2.4C8.489 29.6 2.4 23.511 2.4 16S8.489 2.4 16 2.4 29.6 8.489 29.6 16 23.511 29.6 16 29.6z" />
  <path fill="#529990" fill-rule="evenodd"
    d="M16 28.8c7.069 0 12.8-5.731 12.8-12.8S23.069 3.2 16 3.2 3.2 8.931 3.2 16 8.931 28.8 16 28.8zM16 4c-.442 0-.8.36-.8.806V15.2H9.598c-.105 0-.209.021-.306.061s-.185.099-.259.174a.8.8 0 0 0-.173.26c-.04.097-.06.201-.06.306 0 .442.364.8.796.8H16.8V4.801a.8.8 0 0 0-.234-.567A.8.8 0 0 0 16 4z" />
</svg>