<svg xmlns="http://www.w3.org/2000/svg" width="14" height="32" fill="transparent" xmlns:v="https://vecta.io/nano">
  <path fill="url(#A)"
    d="M7.688 32l-.835-.285s.111-4.343-1.418-4.648c-1.001-1.198.148-51.132 3.806-.17-.694.362-1.225.986-1.482 1.741A16.56 16.56 0 0 0 7.688 32z" />
  <path fill="url(#B)"
    d="M8.14 27.805c2.223-1.72 3.926-4.054 4.91-6.729a15.51 15.51 0 0 0 .649-8.385C12.065 5.279 8.194 2.842 7.777 1.912A11.31 11.31 0 0 1 6.86.083l.308 20.65s-.638 6.311.972 7.071z" />
  <path fill="url(#C)"
    d="M6.429 28.079S-.377 23.314.016 14.886a18.17 18.17 0 0 1 1.662-7.341 17.71 17.71 0 0 1 4.474-5.971 1.97 1.97 0 0 0 .513-.707A2.02 2.02 0 0 0 6.828 0c.424.937.355 13.992.399 15.519.172 5.939-.321 11.439-.798 12.56z" />
  <defs>
    <linearGradient id="A" x1="-10.17" y1="14.029" x2="8.363" y2="32.07" gradientUnits="userSpaceOnUse">
      <stop offset=".231" stop-color="#999875" />
      <stop offset=".563" stop-color="#9b9977" />
      <stop offset=".683" stop-color="#a09f7e" />
      <stop offset=".768" stop-color="#a9a889" />
      <stop offset=".837" stop-color="#b7b69a" />
      <stop offset=".896" stop-color="#c9c7b0" />
      <stop offset=".948" stop-color="#deddcb" />
      <stop offset=".994" stop-color="#f8f6eb" />
      <stop offset="1" stop-color="#fbf9ef" />
    </linearGradient>
    <linearGradient id="B" x1="-2.481" y1="-.17" x2=".614" y2="31.773" gradientUnits="userSpaceOnUse">
      <stop stop-color="#48a547" />
      <stop offset="1" stop-color="#3f9143" />
    </linearGradient>
    <linearGradient id="C" x1="-.569" y1="15.72" x2="10.879" y2="11.99" gradientUnits="userSpaceOnUse">
      <stop stop-color="#41a247" />
      <stop offset=".352" stop-color="#4ba74b" />
      <stop offset=".956" stop-color="#67b554" />
      <stop offset="1" stop-color="#69b655" />
    </linearGradient>
  </defs>
</svg>