<svg xmlns="http://www.w3.org/2000/svg" width="28" height="32" fill="transparent" xmlns:v="https://vecta.io/nano">
  <path fill="#76d04b"
    d="M13.245 31.797a1.5 1.5 0 0 0 1.508 0l12.493-7.238a1.51 1.51 0 0 0 .553-.555 1.52 1.52 0 0 0 .202-.758V8.759a1.52 1.52 0 0 0-.202-.757c-.132-.23-.323-.422-.552-.555L14.753.203C14.524.07 14.264 0 13.999 0s-.525.07-.755.203L.754 7.447c-.229.133-.42.324-.552.555A1.52 1.52 0 0 0 0 8.759v14.488c0 .541.288 1.041.755 1.311l12.49 7.238z" />
  <path fill="#4f4d3f"
    d="M22.088 12.547l-.557-.322c.857-1.269 1.369-3.176.727-6.028 0 0-1.446 4.068-4.352 3.933l-3.403-1.966c-.127-.075-.271-.117-.418-.122h-.079a.9.9 0 0 0-.419.122l-3.403 1.966c-2.906.135-4.352-3.933-4.352-3.933-.642 2.852-.13 4.759.727 6.028l-.557.322a.92.92 0 0 0-.336.338c-.081.14-.123.3-.123.461l.017 11.801a.45.45 0 0 0 .229.397c.069.042.147.064.228.064s.159-.022.228-.064l4.508-2.592c.285-.17.459-.47.459-.798v-5.513c0-.329.173-.634.457-.796l1.92-1.11c.139-.082.298-.125.459-.124a.89.89 0 0 1 .456.124l1.919 1.11c.139.08.255.196.336.336a.92.92 0 0 1 .122.46v5.513a.93.93 0 0 0 .459.798l4.507 2.592c.069.042.148.064.229.064s.16-.022.229-.064a.46.46 0 0 0 .227-.397l.015-11.801a.92.92 0 0 0-.458-.799z" />
</svg>