<svg xmlns="http://www.w3.org/2000/svg" width="32" height="32" fill="transparent" xmlns:v="https://vecta.io/nano">
  <path fill="#539e43"
    d="M16 32c-.497 0-.961-.118-1.391-.323l-4.406-2.323c-.663-.323-.331-.441-.133-.5.894-.265 1.06-.323 1.988-.794.1-.059.232-.029.331.029l3.379 1.793c.133.059.298.059.398 0l13.217-6.791c.133-.059.199-.176.199-.323V9.216c0-.147-.066-.265-.199-.323L16.166 2.131c-.133-.059-.298-.059-.398 0L2.551 8.893c-.132.059-.199.206-.199.323v13.553c0 .118.066.265.199.323l3.611 1.852c1.954.882 3.18-.147 3.18-1.176V10.392c0-.176.166-.353.398-.353h1.689c.199 0 .398.147.398.353v13.376c0 2.322-1.424 3.675-3.909 3.675-.762 0-1.358 0-3.048-.735l-3.478-1.764C.53 24.503 0 23.68 0 22.798V9.246C0 8.364.53 7.541 1.391 7.1L14.609.309c.828-.412 1.954-.412 2.783 0L30.609 7.1C31.47 7.541 32 8.364 32 9.246v13.553c0 .882-.53 1.705-1.391 2.146l-13.217 6.791A3.76 3.76 0 0 1 16 32zm4.075-9.319c-5.797 0-6.99-2.352-6.99-4.351 0-.176.166-.353.398-.353h1.723c.199 0 .364.118.364.294.265 1.558 1.027 2.322 4.538 2.322 2.783 0 3.975-.559 3.975-1.881 0-.764-.331-1.323-4.671-1.705-3.611-.323-5.863-1.029-5.863-3.586 0-2.381 2.252-3.792 6.029-3.792 4.24 0 6.327 1.294 6.592 4.116a.44.44 0 0 1-.099.265.43.43 0 0 1-.265.118h-1.723c-.166 0-.331-.118-.364-.265-.397-1.617-1.424-2.146-4.141-2.146-3.047 0-3.412.941-3.412 1.646 0 .853.431 1.117 4.538 1.588 4.075.47 5.996 1.147 5.996 3.675-.033 2.587-2.418 4.057-6.625 4.057z" />
</svg>