<svg xmlns="http://www.w3.org/2000/svg" xmlns:xlink="http://www.w3.org/1999/xlink" width="28" height="32"
  fill="transparent" xmlns:v="https://vecta.io/nano">
  <style>
    <![CDATA[
    .B {
      fill: #2f406a
    }

    .C {
      fill: #2379bd
    }

    .D {
      fill: #03afef
    }
    ]]>
  </style>
  <path d="M23.955 10.205v11.528l-9.907 5.795-.09.081v4.308l.09.084L28 24.032V7.969l-.132-.032-3.934 2.174.02.094z"
    class="B" />
  <path d="M4.109 21.827l9.939 5.701V32L0 24V8l.144-.022 3.922 2.255.043.129v11.465z" class="C" />
  <path d="M4.109 10.362L0 8l14.016-8L28 7.969l-4.046 2.236-9.938-5.606-9.907 5.764z" class="D" />
  <use xlink:href="#B" class="B" />
  <path d="M9.918 18.369v-4.631l.109-.005 3.818 2.197.033.087v4.492l-3.959-2.139z" class="C" />
  <use xlink:href="#C" class="D" />
  <path d="M9.031 23.332l-.108-.109v-4.329l.108-.055.026-.107 3.753-2.165.115.025v4.46l-3.894 2.278z" class="B" />
  <path d="M5.072 21.193v-4.631l.109-.005 3.818 2.197.032.087v4.492l-3.959-2.139z" class="C" />
  <use xlink:href="#C" x="-4.846" y="2.824" class="D" />
  <use xlink:href="#B" x="5.193" y="2.931" class="B" />
  <path d="M15.11 21.3v-4.631l.109-.005 3.818 2.197.033.087v4.492L15.11 21.3z" class="C" />
  <use xlink:href="#C" x="5.193" y="2.931" class="D" />
  <path d="M14.223 26.263l-.107-.109v-4.329l.107-.055.026-.107 3.753-2.165.115.025v4.46l-3.894 2.278z" class="B" />
  <path d="M10.264 24.124v-4.631l.109-.005 3.818 2.197.032.087v4.492l-3.959-2.139z" class="C" />
  <use xlink:href="#C" x="0.347" y="5.754" class="D" />
  <path d="M13.877 14.369l-.108-.109V9.932l.108-.055.026-.107 3.753-2.165.115.025v4.46l-3.894 2.278z" class="B" />
  <path d="M9.918 12.23V7.599l.109-.005 3.818 2.197.033.087v4.492L9.918 12.23z" class="C" />
  <path d="M13.812 5.321L9.918 7.599l3.959 2.278 3.894-2.246-3.959-2.31z" class="D" />
  <use xlink:href="#B" x="-4.846" y="-3.315" class="B" />
  <path d="M5.072 15.054v-4.631l.109-.005 3.818 2.197.032.086v4.492l-3.959-2.139z" class="C" />
  <use xlink:href="#C" x="-4.846" y="-3.316" class="D" />
  <path d="M19.07 17.3l-.108-.109v-4.329l.108-.055.026-.107 3.753-2.165.115.025v4.46L19.07 17.3z" class="B" />
  <path d="M15.11 15.161V10.53l.109-.005 3.818 2.197.033.087V17.3l-3.959-2.139z" class="C" />
  <path d="M19.005 8.251L15.11 10.53l3.959 2.278 3.894-2.246-3.959-2.31z" class="D" />
  <path d="M14.223 20.123l-.107-.108v-4.329l.107-.055.026-.107 3.753-2.165.115.025v4.46l-3.894 2.278z" class="B" />
  <path d="M10.264 17.984v-4.631l.109-.005 3.818 2.197.032.086v4.492l-3.959-2.139z" class="C" />
  <use xlink:href="#C" x="0.347" y="-0.385" class="D" />
  <defs>
    <path id="B" d="M13.877 20.508l-.108-.108v-4.329l.108-.055.026-.107 3.753-2.165.115.025v4.46l-3.894 2.278z" />
    <path id="C" d="M13.812 11.46l-3.894 2.278 3.959 2.278 3.894-2.246-3.959-2.31z" />
  </defs>
</svg>
