<svg xmlns="http://www.w3.org/2000/svg" width="32" height="32" fill="transparent" xmlns:v="https://vecta.io/nano">
  <path fill="#e01e5a"
    d="M6.746 20.229a3.36 3.36 0 0 1-3.36 3.363 3.36 3.36 0 0 1-3.36-3.363 3.36 3.36 0 0 1 3.36-3.363h3.36v3.363zm1.68 0a3.36 3.36 0 1 1 6.721 0v8.408a3.36 3.36 0 1 1-6.721 0v-8.408z" />
  <path fill="#36c5f0"
    d="M11.787 6.726a3.36 3.36 0 0 1-3.36-3.363 3.36 3.36 0 1 1 6.721 0v3.363h-3.36zm0 1.707a3.36 3.36 0 0 1 0 6.726H3.36a3.36 3.36 0 0 1 0-6.726h8.426z" />
  <path fill="#2eb67d"
    d="M25.254 11.796a3.36 3.36 0 1 1 6.721 0 3.36 3.36 0 0 1-3.36 3.363h-3.36v-3.363zm-1.68 0a3.36 3.36 0 1 1-6.721 0V3.363a3.36 3.36 0 1 1 6.721 0v8.433z" />
  <path fill="#ecb22e"
    d="M20.213 25.274a3.36 3.36 0 0 1 0 6.726 3.36 3.36 0 0 1-3.36-3.363v-3.363h3.36zm0-1.682a3.36 3.36 0 0 1 0-6.726h8.426a3.36 3.36 0 1 1 0 6.726h-8.426z" />
</svg>