<svg xmlns="http://www.w3.org/2000/svg" width="40" height="24" fill="transparent" xmlns:v="https://vecta.io/nano">
  <path fill="url(#A)"
    d="M20 0c-5.333 0-8.667 2.667-10 8 2-2.667 4.333-3.667 7-3 1.521.38 2.609 1.484 3.813 2.706C22.774 9.696 25.043 12 30 12c5.333 0 8.667-2.667 10-8-2 2.667-4.333 3.667-7 3-1.521-.38-2.609-1.484-3.813-2.706C27.226 2.304 24.957 0 20 0zM10 12c-5.333 0-8.667 2.667-10 8 2-2.667 4.333-3.667 7-3 1.521.38 2.609 1.484 3.813 2.706C12.774 21.696 15.043 24 20 24c5.333 0 8.667-2.667 10-8-2 2.667-4.333 3.667-7 3-1.521-.38-2.609-1.484-3.813-2.706C17.226 14.304 14.957 12 10 12z" />
  <defs>
    <linearGradient id="A" x1="-1.111" y1="7.68" x2="33.435" y2="27.599" gradientUnits="userSpaceOnUse">
      <stop stop-color="#2298bd" />
      <stop offset="1" stop-color="#0ed7b5" />
    </linearGradient>
  </defs>
</svg>