<svg xmlns="http://www.w3.org/2000/svg" width="28" height="32" fill="transparent" xmlns:v="https://vecta.io/nano">
  <path fill="#fff" d="M14 0l14 7.999v16.003L14 32 0 24.001V7.999L14 0z" />
  <path fill="#8ed6fb"
    d="M25.501 23.446l-11.036 6.312V24.85l6.878-3.826 4.158 2.422zm.755-.688V9.568l-4.036 2.353v8.484l4.036 2.353zm-23.8.688l11.036 6.307v-4.909l-6.878-3.82-4.158 2.422zm-.755-.688V9.568l4.036 2.353v8.484l-4.036 2.353zm.47-14.044l11.321-6.467v4.749l-7.254 4.029-.058.032-4.01-2.342zm23.61 0L14.465 2.246v4.749l7.248 4.034.058.032 4.01-2.348z" />
  <path fill="#1c78c0"
    d="M13.493 23.729l-6.783-3.773v-7.465l6.783 3.954v7.284zm.972 0l6.783-3.767v-7.47l-6.783 3.954v7.284zM7.164 11.627l6.815-3.783 6.81 3.783-6.81 3.97-6.815-3.97z" />
</svg>