<svg xmlns="http://www.w3.org/2000/svg" xmlns:xlink="http://www.w3.org/1999/xlink" width="250" height="250"
  viewBox="0 0 264 280">
  <defs>
    <circle id="A" cx="120" cy="120" r="120" />
    <path d="M12 160c0 66.274 53.726 120 120 120s120-53.726 120-120h12V0H0v160h12z" id="B" />
    <path
      d="M124 144.611V163h4 0c39.765 0 72 32.235 72 72v9H0v-9c0-39.765 32.235-72 72-72h0 4v-18.389c-17.237-8.189-29.628-24.924-31.695-44.73C38.48 99.058 34 94.052 34 88V74c0-5.946 4.325-10.882 10-11.834V56h0c0-30.928 25.072-56 56-56h0 0c30.928 0 56 25.072 56 56v6.166c5.675.952 10 5.888 10 11.834v14c0 6.052-4.48 11.058-10.305 11.881-2.067 19.806-14.457 36.541-31.695 44.73z"
      id="C" />
  </defs>
  <g fill="none" fill-rule="evenodd">
    <g transform="translate(12 40)">
      <mask id="D" fill="#fff">
        <use xlink:href="#A" />
      </mask>
      <use fill="#e6e6e6" xlink:href="#A" />
      <g mask="url(#D)" fill="#65c9ff">
        <path d="M0 0h240v240H0z" />
      </g>
    </g>
    <mask id="E" fill="#fff">
      <use xlink:href="#B" />
    </mask>
    <g mask="url(#E)">
      <g transform="translate(32 36)">
        <mask id="F" fill="#fff">
          <use xlink:href="#C" />
        </mask>
        <use fill="#d0c6ac" xlink:href="#C" />
        <g mask="url(#F)" fill="#ffdbb4">
          <path d="M0 0h264v280H0z" />
        </g>
        <path
          d="M156 79v23c0 30.928-25.072 56-56 56s-56-25.072-56-56V79v15c0 30.928 25.072 56 56 56s56-25.072 56-56V79z"
          fill-opacity=".1" fill="#000" mask="url(#F)" />
      </g>
      <g transform="translate(0 170)">
        <defs>
          <path
            d="M105.192 29.052H104h0c-39.765 0-72 32.235-72 72V110h200v-8.948c0-39.765-32.235-72-72-72h0-1.192a23.41 23.41 0 0 1 .192 3c0 13.807-12.088 25-27 25s-27-11.193-27-25a23.41 23.41 0 0 1 .192-3z"
            id="G" />
        </defs>
        <mask id="H" fill="#fff">
          <use xlink:href="#G" />
        </mask>
        <use fill="#e6e6e6" xlink:href="#G" />
        <g mask="url(#H)" fill="#a7ffc4">
          <path d="M0 0h264v110H0z" />
        </g>
        <path
          d="M156 22.279c6.182 4.556 10 10.826 10 17.748 0 7.206-4.137 13.705-10.771 18.299l-5.65-4.451-4.579.331 1-3.151-.078-.061C152.022 47.853 156 42.7 156 36.877V22.279zm-48-.708c-6.767 4.603-11 11.168-11 18.456 0 7.398 4.362 14.052 11.308 18.664l6.112-4.815 4.579.331-1-3.151.078-.061C111.978 47.853 108 42.7 108 36.877V21.571z"
          fill="#f2f2f2" />
      </g>
      <g transform="translate(76 82)" fill="#000">
        <g transform="translate(2 52)">
          <defs>
            <path
              d="M35.118 15.128C36.176 24.62 44.226 32 54 32c9.804 0 17.874-7.426 18.892-16.96.082-.767-.775-2.04-1.849-2.04H37.087c-1.08 0-2.075 1.178-1.969 2.128z"
              id="I" />
          </defs>
          <mask id="J" fill="#fff">
            <use xlink:href="#I" />
          </mask>
          <use fill-opacity=".7" xlink:href="#I" />
          <rect fill="#fff" mask="url(#J)" x="39" y="2" width="31" height="16" rx="5" />
          <g mask="url(#J)" fill="#ff4f6d">
            <circle cx="49" cy="35" r="11" />
            <circle cx="59" cy="35" r="11" />
          </g>
        </g>
        <g fill-opacity=".16">
          <path d="M44 48c0 4.418 5.373 8 12 8h0c6.627 0 12-3.582 12-8" />
        </g>
        <g fill-opacity=".6">
          <circle cx="30" cy="30" r="6" />
          <circle cx="82" cy="30" r="6" />
        </g>
        <g fill-opacity=".6" fill-rule="nonzero">
          <path
            d="M15.63 17.159c3.915-5.509 14.648-8.598 23.893-6.327a2 2 0 1 0 .954-3.885c-10.737-2.637-23.165.94-28.107 7.895a2 2 0 0 0 3.26 2.317z" />
          <path
            d="M61.63 11.159c3.915-5.509 14.648-8.598 23.893-6.327a2 2 0 1 0 .954-3.885C75.74-1.69 63.312 1.887 58.37 8.841a2 2 0 1 0 3.26 2.317z"
            transform="matrix(-1 0 0 1 158.000308 6)" />
        </g>
      </g>
      <defs>
        <path id="K" d="M0 0h264v280H0z" />
        <path
          d="M180.15 39.92c-2.76-2.82-5.964-5.214-9.081-7.614l-2.059-1.595c-.153-.125-1.719-1.246-1.906-1.659-.451-.993-.19-.22-.127-1.404.079-1.498 3.133-5.729.854-6.7-1.003-.427-2.792.709-3.754 1.084a59.49 59.49 0 0 1-5.731 1.9c.932-1.857 2.709-5.574-.631-4.579-2.602.775-5.026 2.768-7.64 3.705.865-1.418 4.324-5.811 1.198-6.057-.973-.076-3.803 1.748-4.85 2.137-3.137 1.166-6.341 1.919-9.634 2.513-11.198 2.018-24.293 1.443-34.653 6.541-7.987 3.93-15.874 10.029-20.488 17.794-4.447 7.485-6.111 15.677-7.041 24.254-.683 6.295-.739 12.801-.419 19.119.104 2.07.337 11.611 3.344 8.721 1.498-1.44 1.487-7.253 1.864-9.221.751-3.915 1.474-7.848 2.726-11.638 2.206-6.679 4.809-13.793 10.305-18.393 3.527-2.952 6.004-6.941 9.379-9.919 1.516-1.337.359-1.198 2.797-1.023 1.638.118 3.283.163 4.924.206 3.796.099 7.598.073 11.395.087 7.647.028 15.258.136 22.897-.265 3.395-.178 6.799-.274 10.185-.588 1.891-.175 5.248-1.388 6.805-.461 1.425.848 2.905 3.615 3.928 4.748 2.417 2.678 5.299 4.724 8.126 6.92 5.894 4.579 8.87 10.331 10.66 17.488 1.783 7.13 1.283 13.745 3.491 20.762.388 1.234 1.416 3.36 2.682 1.454.235-.354.174-2.3.174-3.42 0-4.52 1.145-7.911 1.13-12.46-.056-13.832-.503-31.868-10.85-42.439z"
          id="L" />
      </defs>
      <mask id="M" fill="#fff">
        <use xlink:href="#K" />
      </mask>
      <g mask="url(#M)">
        <g transform="translate(-1)">
          <g transform="translate(49 72)">
            <defs>
              <path
                d="M101.428 98.169c-2.514 2.294-5.191 3.326-8.575 2.604-.582-.124-2.957-4.538-8.853-4.538s-8.27 4.414-8.853 4.538c-3.384.721-6.062-.31-8.575-2.604-4.725-4.313-8.655-10.26-6.293-16.749 1.231-3.382 3.232-7.095 6.873-8.173 3.888-1.15 9.346-.002 13.264-.788 1.269-.255 2.656-.707 3.585-1.458.929.751 2.316 1.204 3.585 1.458 3.918.786 9.377-.363 13.264.788 3.641 1.078 5.642 4.791 6.873 8.173 2.361 6.489-1.568 12.436-6.294 16.749M140.081 26c-3.41 8.4-2.093 18.858-2.724 27.676-.513 7.167-2.02 17.91-8.384 22.539-3.254 2.367-9.178 6.345-13.431 5.236-2.927-.764-3.24-9.16-7.087-12.303-4.364-3.565-9.812-5.131-15.306-4.889-2.371.104-7.165.08-9.149 1.903-1.984-1.823-6.778-1.798-9.149-1.903-5.494-.242-10.943 1.324-15.306 4.889-3.847 3.143-4.159 11.539-7.086 12.303-4.252 1.11-10.176-2.869-13.431-5.236-6.365-4.629-7.871-15.371-8.384-22.539-.631-8.818.686-19.276-2.724-27.676-1.659 0-.565 16.129-.565 16.129v20.356c.032 15.288 9.581 38.17 30.754 46.908C63.286 111.53 75.015 115 84 115s20.714-3.14 25.892-5.277c21.173-8.738 30.722-31.95 30.754-47.238V42.129S141.74 26 140.081 26"
                id="N" />
            </defs>
            <mask id="O" fill="#fff">
              <use xlink:href="#N" />
            </mask>
            <use fill="#331b0c" xlink:href="#N" />
            <g mask="url(#O)" fill="#4a312c">
              <path d="M-32 0h264v244H-32z" />
            </g>
          </g>
          <mask id="P" fill="#fff">
            <use xlink:href="#L" />
          </mask>
          <use fill="#1f3140" xlink:href="#L" />
          <g mask="url(#P)" fill="#4a312c">
            <path d="M0 0h264v280H0z" />
          </g>
          <g transform="translate(62 85)">
            <defs>
              <filter x="-0.8%" y="-2.4%" width="101.5%" height="109.8%" id="Q">
                <feOffset dy="2" in="SourceAlpha" />
                <feColorMatrix values="0 0 0 0 0   0 0 0 0 0   0 0 0 0 0  0 0 0 0.2 0" result="B" />
                <feMerge>
                  <feMergeNode in="B" />
                  <feMergeNode in="SourceGraphic" />
                </feMerge>
              </filter>
            </defs>
            <g filter="url(#Q)" transform="translate(6 7)" fill="#252c2f" fill-rule="nonzero">
              <path
                d="M34 41h-2.758C17.315 41 9 33.336 9 20.5 9 10.127 10.817 0 32.53 0h2.94C57.183 0 59 10.127 59 20.5 59 32.569 48.721 41 34 41zM32.385 6C13 6 13 12.841 13 21.502 13 28.572 16.116 37 30.971 37H34c12.365 0 21-6.373 21-15.498C55 12.841 55 6 35.615 6h-3.229z" />
              <path
                d="M96 41h-2.758C79.315 41 71 33.336 71 20.5 71 10.127 72.817 0 94.53 0h2.94C119.183 0 121 10.127 121 20.5 121 32.569 110.721 41 96 41zM94.385 6C75 6 75 12.841 75 21.502 75 28.572 78.119 37 92.971 37H96c12.365 0 21-6.373 21-15.498C117 12.841 117 6 97.615 6h-3.229z" />
              <path
                d="M2.955 5.772C3.646 5.096 11.21 0 32.5 0c17.851 0 21.63 1.853 27.35 4.652l.419.207c.398.141 2.431.831 4.81.907a17 17 0 0 0 4.563-.869C76.17 1.722 82.561 0 97.5 0c21.29 0 28.854 5.096 29.545 5.772 1.634 0 2.955 1.29 2.955 2.886v2.886c0 1.596-1.321 2.886-2.955 2.886 0 0-6.901 0-6.901 2.886s-1.962-4.176-1.962-5.772V8.732c-3.603-1.379-10.053-3.946-20.682-3.946-11.842 0-17.739 2.1-22.798 4.185l.057.136-.002 1.986-2.217 5.35-2.739-1.083c-.245-.097-.772-.27-1.504-.451-2.04-.503-4.137-.656-5.992-.276-.68.14-1.312.349-1.891.632l-2.642 1.291-2.644-5.162.117-2.294.081-.195C50.962 6.874 46.939 4.786 32.5 4.786c-10.628 0-17.078 2.566-20.682 3.945v2.812c0 1.596-2.955 8.657-2.955 5.772s-5.909-2.886-5.909-2.886C1.324 14.429 0 13.139 0 11.543V8.657c0-1.596 1.324-2.886 2.955-2.886z" />
            </g>
          </g>
        </g>
      </g>
    </g>
  </g>
</svg>