<svg xmlns="http://www.w3.org/2000/svg" width="32" height="32" fill="transparent" xmlns:v="https://vecta.io/nano">
  <path fill="#112b49"
    d="M20.028 22.315h3.454L17.969 8.006H14.15L8.637 22.315h3.454l.901-2.424h5.209l-.943-2.682h-3.43l2.231-6.157 3.969 11.263zm11.389-10.594a.83.83 0 0 0-.392-.501.83.83 0 0 0-.631-.077.83.83 0 0 0-.579 1.023c.347 1.249.522 2.539.522 3.835 0 7.906-6.432 14.338-14.338 14.338S1.662 23.906 1.662 16 8.094 1.662 16 1.662c3.349 0 6.59 1.19 9.147 3.307-.102.244-.155.507-.155.772a2 2 0 0 0 2 2 2 2 0 0 0 2-2 2 2 0 0 0-2-2c-.213 0-.417.034-.61.095C23.503 1.382 19.814 0 16 0 7.178 0 0 7.178 0 16s7.178 16 16 16 16-7.178 16-16c0-1.446-.196-2.886-.583-4.279z" />
</svg>
