<svg xmlns="http://www.w3.org/2000/svg" width="26" height="32" fill="transparent" xmlns:v="https://vecta.io/nano">
  <path fill="#fbc02d"
    d="M9.623 2.314c-1.025.753-2.098 1.438-3.21 2.051v.206c.113-.02.221-.063.317-.126.139 0 .226.042.226.181l.226-.126h.113v.098c-.682.679-1.439 1.276-2.257 1.778l.124.195h-.113l-.236-.082c0 .071-.097.114-.317.126v.114l.247.278a.87.87 0 0 1-.326-.072 2.13 2.13 0 0 0-.833.38c-.247.186-.452.423-.601.697l.124.195a2.95 2.95 0 0 1 .715-.571l.027.305c-.112.022-.22.065-.317.126l.263.391c.48-.535 1.031-1 1.637-1.382.301.082.451.168.451.278h.226c1.452-1.125 3.07-2.012 4.794-2.629v.211c-.301.447-.495.67-.603.686.015.145.067.284.151.403-.57 1.889-1.286 3.729-2.143 5.503A156.38 156.38 0 0 1 0 29.061c.021.109.063.213.124.305a2.86 2.86 0 0 0 1.063-.403h.124v.211h.209l.232-.162c0 .071.081.098.226.082v.212a1.89 1.89 0 0 1-.359.963c-.338.495-.585 1.048-.73 1.632V32h.209a13.42 13.42 0 0 0 2.052-3.002 32.69 32.69 0 0 0 6.035-2.305c1.147-.032 2.257-.417 3.183-1.104v-.114l-.524.153h-.124v-.114c.748-.061 1.471-.3 2.112-.697l4.525-3.323c3.158-2.345 4.644-4.607 4.466-6.755a12.61 12.61 0 0 0-2.082-2.638c-.027-.305.451-.712 1.418-1.272l2.742-2.446C25.618 7.229 26 5.894 26 4.53l-.058-.416c-.113-1.241-.993-2.247-2.673-3.014C21.62.269 19.782-.102 17.944.024c-2.857.387-5.651 1.155-8.309 2.286l-.012.005zm2.414 8.779c.209-1.143.441-1.8.703-1.953l2.288-5.198c-.027-.321.451-.571 1.461-.739l.332-.027.027.305 1.832-.266c1.805-.153 2.755.211 2.839 1.115h.209l-.042-.531h.226c.224.09.421.237.571.428a1.4 1.4 0 0 1 .283.66 1.64 1.64 0 0 1-.468 1.088c-.139 0-.226-.082-.236-.305h-.226l-.054.63c-.923 1.397-1.579 2.11-1.998 2.139-.372.516-.606.782-.703.8-.718.688-1.513 1.288-2.369 1.789a30.65 30.65 0 0 0-4.756 1.871.78.78 0 0 0-.441-.071v-.199a2.61 2.61 0 0 1 .537-1.528l-.015-.007zM4.592 7.159v.098c-.112.022-.22.065-.317.126h-.113v-.197l.43-.027zm6.631-.155l.027.305c-.097 0-.236.153-.398.447v-.213a1.04 1.04 0 0 0 .301-.544l.07.005zm-1.015 2.171l.042.418h-.113l-.033-.416.104-.002zm-.263.755c-.027.343-.113.531-.301.544h-.113c.105-.158.167-.341.178-.531l.236-.013zm-.451 1.088v.098l-.193.336h-.209v-.093a.27.27 0 0 0 .129-.015c.041-.015.078-.041.108-.074a.28.28 0 0 0 .065-.247h.099l.001-.006zm-.468.978l-.054.516h-.113l-.042-.516h.209zm2.414 1.562v.196l-.429.042v-.195l.429-.042zM9.39 16.55a23.99 23.99 0 0 0 5.854-1.758l.649-.055c.529-.096 1.072-.076 1.593.059a3.73 3.73 0 0 1 1.425.724l.042.418c-.495 1.452-1.047 2.286-1.638 2.555l-2.754 2.219a26.89 26.89 0 0 1-3.318 2.066 24.51 24.51 0 0 1-6.091 2.834h-.124c.113-.391 1.557-3.406 4.369-9.077l-.005.013zm2.974-1.186v.098l-.441.042v-.098l.441-.042zm-6.861 6.743c-.139.712-.301 1.077-.441 1.088v-.098c-.008-.19.028-.378.107-.551s.197-.323.344-.44l-.01.001zm2.755 3.937a35.15 35.15 0 0 0 6.586-3.492v.195c0 .082-.301.343-.923.81-1.139.496-2.221 1.118-3.225 1.856-1.985.697-2.963 1.132-2.947 1.3-1.186.449-2.345.966-3.473 1.55-.197-.006-.39-.058-.564-.153-.016-.18.022-.362.107-.521a.91.91 0 0 1 .375-.372 1.73 1.73 0 0 1 .881.141 8.43 8.43 0 0 1 1.708-.559v-.211l-.649.055c.594-.368 1.228-.668 1.888-.893l.332-.027v.106c-.552.042-.869.229-.938.517-.001.028.005.056.017.082s.029.048.051.065.047.03.075.035.055.005.082-.002a2.67 2.67 0 0 0 .603-.474l.012-.008zm-3.384-2.537v.098c.007.029.006.059 0 .088s-.02.056-.038.079-.042.042-.069.054-.056.018-.085.018v-.098a.21.21 0 0 1 .004-.081c.007-.027.018-.052.034-.073s.036-.04.059-.055.049-.023.075-.027l.02-.002zm5.154 1.424a4.86 4.86 0 0 0-1.475.657H8.44v-.211a2.08 2.08 0 0 0 1.354-.63c.028-.004.057-.002.084.005s.053.021.075.039a.21.21 0 0 1 .053.066c.013.026.021.054.023.082l-.001-.009zm-5.359 1.521L5 26.424v.114c-.113.02-.221.063-.317.126h-.208c.005-.052.027-.1.062-.139s.081-.064.131-.074z" />
</svg>
