<svg xmlns="http://www.w3.org/2000/svg" width="40" height="32" fill="transparent" xmlns:v="https://vecta.io/nano">
  <path fill="#7e13f8"
    d="M8.308 0C6.026 0 4.337 2.006 4.413 4.182c.073 2.09-.022 4.797-.7 7.005C3.032 13.401 1.88 14.803 0 14.984v2.033c1.88.18 3.032 1.583 3.712 3.797.679 2.208.773 4.915.7 7.005C4.337 29.994 6.026 32 8.308 32h23.386c2.282 0 3.971-2.006 3.895-4.182-.073-2.09.022-4.797.7-7.005.681-2.214 1.829-3.617 3.709-3.797v-2.033c-1.88-.18-3.028-1.583-3.709-3.797-.679-2.207-.773-4.915-.7-7.005C35.666 2.006 33.977 0 31.695 0H8.308zm18.811 19.698c0 2.996-2.225 4.813-5.917 4.813h-6.286c-.18 0-.352-.072-.479-.2a.68.68 0 0 1-.198-.481V8.17c0-.089.018-.178.052-.261a.68.68 0 0 1 .367-.369c.082-.034.17-.052.259-.052h6.25c3.079 0 5.1 1.675 5.1 4.247 0 1.805-1.359 3.421-3.091 3.704v.094c2.358.26 3.945 1.899 3.945 4.164zm-6.603-10.05h-3.584v5.084h3.019c2.333 0 3.62-.944 3.62-2.631 0-1.581-1.107-2.453-3.055-2.453zm-3.584 7.101v5.603h3.716c2.429 0 3.717-.979 3.717-2.819s-1.323-2.784-3.873-2.784h-3.56z" />
</svg>
