<svg xmlns="http://www.w3.org/2000/svg" width="32" height="32" fill="transparent" xmlns:v="https://vecta.io/nano">
  <path fill="#000"
    d="M15.947.001L15.975 0h.051l.035.001.042.002c.268.018.517.106.729.245l14.466 9.601c.153.097.288.222.397.367l.028.038.019.028a1.51 1.51 0 0 1 .258.835v9.734a1.51 1.51 0 0 1-.224.814l-.017.026-.017.026a1.51 1.51 0 0 1-.402.405l-14.485 9.613a1.51 1.51 0 0 1-.75.261l-.064.003L16 32h-.026l-.039-.002-.041-.002c-.267-.018-.524-.107-.745-.258L.706 22.153c-.131-.083-.249-.185-.349-.304l-.003-.004-.09-.119-.006-.008A1.51 1.51 0 0 1 0 20.857v-9.708a1.51 1.51 0 0 1 .182-.74l.031-.054.012-.021a1.52 1.52 0 0 1 .481-.487L15.146.263c.208-.142.448-.23.699-.256l.057-.005.045-.002zM8.757 17.825l-4.517 3.038 10.245 6.798v-5.983l-5.728-3.853zm14.485 0l-5.728 3.854v5.983l10.245-6.799-4.516-3.038zM16 12.952l-4.529 3.047L16 19.045l4.529-3.046L16 12.952zM3.028 13.97v4.058L6.044 16 3.028 13.97zm25.942.002L25.956 16l3.014 2.028v-4.055zM14.486 4.336l-10.246 6.8 4.518 3.039 5.728-3.853V4.336zm3.029.002v5.984l5.728 3.853 4.517-3.038-10.245-6.798z" />
</svg>
