<svg xmlns="http://www.w3.org/2000/svg" width="36" height="32" fill="transparent" xmlns:v="https://vecta.io/nano">
  <path fill="#8080f2"
    d="M10.964 11.465l6.83-3.99c.084-.049.179-.075.276-.075s.192.026.276.075l6.83 3.99c.084.049.154.12.202.205s.074.181.074.28v7.981a.56.56 0 0 1-.276.484l-6.83 3.99c-.084.049-.179.075-.276.075a.55.55 0 0 1-.276-.075l-6.83-3.99c-.084-.049-.154-.12-.202-.205s-.074-.181-.074-.28v-7.981a.56.56 0 0 1 .276-.484z" />
  <path fill="#4b32c3"
    d="M35.777 15.285L27.608.904C27.311.384 26.763 0 26.17 0H9.83c-.593 0-1.142.384-1.439.904L.223 15.254a1.73 1.73 0 0 0 0 1.697l8.169 14.264c.297.52.845.786 1.439.786h16.339c.593 0 1.142-.258 1.438-.778l8.169-14.287a1.64 1.64 0 0 0 0-1.649zm-6.765 6.916c0 .211-.126.407-.307.513L18.3 28.789c-.09.052-.191.079-.294.079s-.205-.027-.294-.079L7.297 22.714c-.181-.106-.308-.301-.308-.513V10.05c0-.212.125-.407.306-.513l10.406-6.075c.089-.052.191-.079.294-.079s.205.027.294.079l10.415 6.075a.61.61 0 0 1 .309.513v12.151z" />
</svg>