<svg xmlns="http://www.w3.org/2000/svg" width="32" height="32" fill="transparent" xmlns:v="https://vecta.io/nano">
  <path fill="#de4c36"
    d="M31.397 14.574L17.425.603a2.06 2.06 0 0 0-2.914 0L11.61 3.505l3.68 3.68c.855-.289 1.836-.095 2.518.587a2.45 2.45 0 0 1 .581 2.533l3.547 3.547c.858-.296 1.848-.104 2.534.582a2.45 2.45 0 0 1 0 3.467c-.958.958-2.51.958-3.469 0-.721-.721-.899-1.779-.534-2.667l-3.308-3.308v8.705c.24.119.459.275.649.464.958.958.958 2.51 0 3.468a2.45 2.45 0 0 1-3.468 0c-.958-.959-.958-2.511 0-3.468a2.46 2.46 0 0 1 .803-.535v-8.786c-.301-.123-.574-.305-.803-.535a2.45 2.45 0 0 1-.528-2.681L10.184 4.93.604 14.51a2.06 2.06 0 0 0 0 2.915l13.972 13.971a2.06 2.06 0 0 0 2.914 0L31.396 17.49c.805-.805.805-2.111 0-2.915z" />
</svg>
