<svg xmlns="http://www.w3.org/2000/svg" width="35" height="34" fill="transparent" xmlns:v="https://vecta.io/nano">
  <path stroke="#000" stroke-width="1.25" stroke-linejoin="round"
    d="M17.5 1C13.583.998 9.793 2.383 6.808 4.907a16.38 16.38 0 0 0-5.595 9.867c-.628 3.845.142 7.788 2.17 11.12s5.184 5.839 8.901 7.069c.828.152 1.127-.351 1.127-.763v-2.784c-4.602.992-5.553-2.197-5.553-2.197a4.35 4.35 0 0 0-1.864-2.434c-1.496-1.015.115-.999.115-.999a3.48 3.48 0 0 1 1.459.556c.437.293.802.682 1.065 1.137 1.473 2.51 3.835 1.785 4.802 1.365a3.51 3.51 0 0 1 1.051-2.197c-3.666-.412-7.517-1.816-7.517-8.101-.024-1.631.586-3.208 1.703-4.402a5.83 5.83 0 0 1 .161-4.341s1.381-.442 4.533 1.678c2.702-.732 5.552-.732 8.253 0 3.153-2.121 4.533-1.678 4.533-1.678.606 1.374.664 2.926.161 4.341 1.115 1.195 1.722 2.772 1.695 4.402 0 6.301-3.835 7.682-7.525 8.094a3.9 3.9 0 0 1 .894 1.404c.193.527.27 1.088.226 1.647v4.501c0 .542.299.946 1.135.763 3.713-1.235 6.863-3.743 8.887-7.077s2.789-7.274 2.159-11.117a16.38 16.38 0 0 0-5.598-9.859C25.204 2.381 21.415.998 17.5 1z" />
</svg>
