<svg xmlns="http://www.w3.org/2000/svg" width="34" height="32" fill="transparent" xmlns:v="https://vecta.io/nano">
  <path fill="#21609b"
    d="M2.161 7.515c-3.012 4.227-2.638 9.726-.336 14.215.052.109.111.213.167.317.033.072.069.138.109.208.018.037.044.078.067.113.037.072.077.141.115.21l.222.368c.042.068.081.134.128.202.079.13.17.259.252.389.037.055.071.108.112.162.137.211.284.417.439.616.111.148.221.292.34.436.038.053.082.105.122.159l.312.372c.04.041.078.093.119.137.139.163.286.322.433.484l.007.008a4.39 4.39 0 0 0 .602.609 9.96 9.96 0 0 0 .347.339l.143.134c.157.145.316.289.482.428l.088.073a10.54 10.54 0 0 0 .439.36l.177.145c.12.094.247.184.368.277l.194.145c.132.097.272.192.407.287.05.035.099.069.15.101l.043.032.397.256.17.111.623.377c.058.028.119.061.174.094l.466.253c.085.047.173.087.261.13a11.99 11.99 0 0 0 .332.173c.027.008.054.019.079.032.047.021.091.043.136.065a11.81 11.81 0 0 0 .531.242c.034.014.071.028.108.047.204.087.409.17.62.252.048.014.099.037.149.055l.582.21.071.025.652.208c.051.014.104.032.157.046.227.066.445.145.672.19 14.553 2.591 18.782-8.55 18.782-8.55-3.553 4.521-9.857 5.713-15.83 4.387-.221-.05-.442-.119-.666-.183a19.56 19.56 0 0 1-.803-.252l-.088-.033c-.193-.064-.378-.134-.567-.205-.051-.02-.103-.039-.156-.055-.21-.083-.411-.167-.613-.255-.044-.014-.081-.033-.125-.05l-.513-.235a2.18 2.18 0 0 1-.15-.072c-.133-.061-.266-.131-.397-.198a5.65 5.65 0 0 1-.265-.133c-.162-.083-.321-.173-.482-.259-.048-.033-.103-.061-.159-.091a22.59 22.59 0 0 1-.622-.374c-.057-.034-.113-.07-.167-.108-.15-.091-.298-.186-.442-.287-.05-.032-.095-.066-.146-.101-.141-.095-.28-.193-.418-.293-.059-.047-.123-.091-.187-.138L10 23.835l-.167-.131a15.03 15.03 0 0 1-.475-.388c-.016-.016-.034-.03-.052-.043l-.492-.437-.142-.13c-.116-.116-.235-.227-.354-.34l-.139-.138c-.15-.146-.296-.295-.438-.447l-.021-.022c-.15-.161-.297-.325-.443-.491-.038-.042-.075-.089-.113-.134l-.322-.383-.482-.622C3.049 15.71 1.85 9.611 4.501 4.61m7.003-.655c-2.182 3.061-2.06 7.155-.36 10.393a12.58 12.58 0 0 0 .961 1.568c.326.457.686.998 1.123 1.368.152.169.316.332.487.498l.127.125c.162.152.329.3.496.45l.023.018a13.84 13.84 0 0 0 .586.473c.048.032.089.069.136.101a19.75 19.75 0 0 0 .606.437l.021.013c.088.062.181.119.281.18.04.025.085.058.127.083.15.094.297.183.451.273.024.01.045.022.068.032a6.92 6.92 0 0 0 .399.217c.047.028.092.049.142.075l.279.141.045.019c.191.093.387.179.578.263.048.019.089.035.13.054a12.7 12.7 0 0 0 .476.19c.071.024.137.051.204.072.144.053.297.101.439.149l.198.062c.208.062.418.144.636.18C31.399 23.207 34 14.752 34 14.752c-2.342 3.294-6.874 4.863-11.703 3.638a11.54 11.54 0 0 1-.636-.18c-.068-.019-.128-.04-.193-.059l-.442-.151-.204-.075c-.16-.062-.322-.12-.476-.187-.048-.021-.092-.035-.129-.055l-.592-.266-.292-.148-.169-.083c-.127-.066-.252-.135-.375-.208a.9.9 0 0 1-.088-.048c-.15-.091-.307-.18-.45-.274-.048-.026-.092-.058-.137-.086l-.295-.188c-.204-.138-.404-.288-.606-.433-.045-.04-.089-.073-.133-.109-2.123-1.631-3.798-3.862-4.593-6.386-.836-2.626-.652-5.569.793-7.959m6.08-.203c-1.288 1.847-1.411 4.139-.524 6.174.942 2.164 2.867 3.862 5.111 4.665.092.035.181.064.278.097l.125.037c.13.042.262.087.397.116 6.206 1.17 7.886-3.115 8.338-3.743-1.478 2.074-3.955 2.571-6.995 1.848a7 7 0 0 1-.731-.221 9.11 9.11 0 0 1-.875-.352 9.29 9.29 0 0 1-1.533-.914C20.227 6.981 18.54 3.134 20.317 0" />
</svg>