<svg xmlns="http://www.w3.org/2000/svg" width="32" height="32" fill="transparent" xmlns:v="https://vecta.io/nano">
  <path fill="url(#A)"
    d="M15.973 23.82c7.08 9.651 14.008-2.694 13.998-10.117C29.959 4.926 21.063.02 15.967.02 7.789.02 0 6.779 0 16.027 0 26.306 8.928 32 15.967 32c-1.593-.229-6.901-1.367-6.972-13.593-.048-8.269 2.697-11.573 6.961-10.12.096.035 4.703 1.853 4.703 7.79 0 5.912-4.686 7.743-4.686 7.743z" />
  <path fill="url(#B)"
    d="M15.965 8.28c-4.678-1.612-10.409 2.243-10.409 9.966C5.556 30.856 14.9 32 16.033 32 24.211 32 32 25.241 32 15.993 32 5.714 23.072.02 16.033.02c1.95-.27 10.508 2.11 10.508 13.807 0 7.628-6.39 11.781-10.547 10.007-.095-.035-4.703-1.853-4.703-7.79 0-5.912 4.674-7.764 4.674-7.764z" />
  <defs>
    <linearGradient id="A" x1="5.053" y1="4.716" x2="29.123" y2="27.273" gradientUnits="userSpaceOnUse">
      <stop />
      <stop offset="1" stop-color="#fff" />
    </linearGradient>
    <linearGradient id="B" x1="27.276" y1="27.276" x2="1.404" y2="9.608" gradientUnits="userSpaceOnUse">
      <stop />
      <stop offset="1" stop-color="#fff" />
    </linearGradient>
  </defs>
</svg>