<svg xmlns="http://www.w3.org/2000/svg" width="32" height="32" fill="transparent" xmlns:v="https://vecta.io/nano">
  <path fill="#0a66c2"
    d="M27.266 27.266h-4.741v-7.425c0-1.771-.032-4.05-2.466-4.05-2.469 0-2.847 1.929-2.847 3.921v7.554H12.47V11.996h4.552v2.087h.064a4.99 4.99 0 0 1 4.491-2.467c4.806 0 5.692 3.161 5.692 7.273l-.002 8.377zM7.12 9.909a2.75 2.75 0 0 1-.001-5.503 2.75 2.75 0 0 1 1.946 4.697 2.75 2.75 0 0 1-1.945.806zM9.49 27.266H4.744v-15.27H9.49v15.27zM29.629.002H2.361C1.073-.012.016 1.02 0 2.309v27.382A2.34 2.34 0 0 0 2.361 32h27.268A2.34 2.34 0 0 0 32 29.691V2.307A2.34 2.34 0 0 0 29.629 0" />
</svg>