<svg xmlns="http://www.w3.org/2000/svg" width="33" height="32" fill="#00546b" xmlns:v="https://vecta.io/nano">
  <path
    d="M30.396 24.75c-1.795-.044-3.187.133-4.354.621-.337.133-.875.133-.92.554.18.177.202.466.359.709.27.443.741 1.042 1.167 1.353l1.436 1.02c.875.532 1.863.842 2.716 1.375.494.31.987.71 1.481 1.042.247.177.404.466.718.576v-.066c-.157-.2-.202-.488-.359-.71l-.673-.643c-.651-.865-1.459-1.619-2.334-2.239-.718-.488-2.29-1.153-2.581-1.973l-.045-.044c.494-.044 1.077-.222 1.549-.355.763-.2 1.459-.155 2.244-.355l1.077-.31v-.2c-.404-.399-.696-.931-1.122-1.308-1.145-.976-2.402-1.929-3.703-2.727-.696-.443-1.594-.732-2.334-1.109-.269-.133-.718-.2-.875-.421-.404-.488-.629-1.131-.92-1.707l-1.841-3.858c-.404-.865-.651-1.729-1.145-2.528-2.312-3.769-4.825-6.053-8.686-8.292-.831-.466-1.818-.665-2.873-.909l-1.683-.089c-.359-.155-.718-.576-1.033-.776C4.384.583 1.084-1.146.142 1.137c-.606 1.441.898 2.86 1.414 3.592.382.51.875 1.086 1.145 1.663.157.377.202.776.359 1.175.359.975.696 2.062 1.167 2.971.247.466.516.953.83 1.375.18.244.494.355.561.754-.314.443-.337 1.109-.516 1.663-.808 2.505-.494 5.609.651 7.45.359.554 1.212 1.774 2.357 1.308 1.01-.399.786-1.663 1.077-2.771.068-.266.023-.444.157-.621v.044l.92 1.84c.696 1.086 1.908 2.217 2.918 2.971.539.399.965 1.086 1.639 1.33v-.067h-.045c-.135-.2-.337-.288-.516-.444-.404-.399-.853-.887-1.167-1.33-.943-1.242-1.773-2.616-2.514-4.035-.359-.687-.673-1.441-.965-2.128-.135-.266-.135-.665-.359-.798-.337.488-.83.909-1.077 1.508-.426.953-.471 2.128-.628 3.348-.09.022-.045 0-.09.045-.718-.178-.965-.909-1.234-1.53-.673-1.574-.786-4.102-.202-5.92.157-.466.831-1.929.561-2.372-.135-.421-.584-.665-.831-.998-.292-.421-.606-.953-.808-1.419-.539-1.242-.808-2.616-1.392-3.858-.269-.577-.74-1.175-1.122-1.707-.426-.599-.898-1.02-1.234-1.729-.112-.244-.269-.643-.09-.909.045-.177.135-.244.314-.288.292-.244 1.122.066 1.414.199.831.332 1.526.643 2.222 1.109.314.222.651.643 1.055.754h.471c.718.155 1.526.044 2.2.244 1.19.377 2.267.931 3.232 1.53a19.76 19.76 0 0 1 7.003 7.583c.269.51.382.976.628 1.508.471 1.087 1.055 2.195 1.526 3.259.471 1.042.92 2.106 1.594 2.971.337.465 1.683.709 2.289.953.449.2 1.145.377 1.549.621.763.465 1.526.998 2.244 1.508.359.266 1.481.82 1.549 1.264zM7.503 5.483a3.6 3.6 0 0 0-.92.111v.044h.045c.18.355.494.599.718.909l.516 1.064.045-.044c.314-.222.471-.577.471-1.109-.135-.155-.157-.31-.269-.466-.135-.222-.426-.333-.606-.51z" />
</svg>