<svg xmlns="http://www.w3.org/2000/svg" width="32" height="32" fill="transparent" xmlns:v="https://vecta.io/nano">
  <path fill="url(#A)"
    d="M23.192 11.105l-.012-.005c-.007-.002-.014-.006-.019-.011-.01-.01-.017-.023-.021-.036s-.005-.028-.003-.041l.646-3.944 3.029 3.026-3.15 1.339a.07.07 0 0 1-.027.005h-.013c-.006-.004-.012-.009-.017-.014-.117-.13-.257-.238-.413-.318zm4.393-.24l3.238 3.235c.672.673 1.009 1.008 1.132 1.397.018.058.033.115.045.174l-7.739-3.274c-.043-.017-.079-.032-.079-.063s.037-.047.068-.059l.01-.004 3.325-1.405zm4.284 5.845c-.167.314-.493.639-1.044 1.191l-3.651 3.646-4.722-.982-.025-.005c-.042-.007-.086-.014-.086-.052-.018-.195-.076-.384-.17-.555s-.223-.321-.377-.441c-.019-.019-.014-.049-.008-.077l.89-5.458.003-.018c.005-.042.012-.09.05-.09.19-.024.374-.085.54-.18s.312-.223.429-.375c.008-.008.012-.018.022-.023.027-.012.059 0 .086.012l8.063 3.407zm-5.535 5.676l-6.004 5.997 1.027-6.309.002-.008c.001-.008.002-.016.005-.024.008-.02.03-.028.051-.037l.01-.004c.225-.096.424-.244.581-.431.02-.023.044-.046.075-.05.008-.001.016-.001.024 0l4.227.868.001-.001zm-7.275 7.267l-.677.676L10.9 19.527c-.02-.028-.033-.043-.03-.062.001-.013.009-.025.018-.035l.008-.011.063-.103.017-.029.002-.002c.012-.02.023-.039.043-.05s.042-.005.061-.001l8.289 1.707c.023.004.045.013.063.027.011.011.013.023.016.036a1.47 1.47 0 0 0 .315.591c.149.17.335.303.544.39.023.012.013.038.002.065a.2.2 0 0 0-.012.038l-1.241 7.564zm-1.414 1.411c-.499.493-.793.754-1.125.86s-.68.104-1.008 0c-.389-.124-.726-.459-1.399-1.132L6.6 23.285l1.962-3.04c.008-.015.02-.029.034-.039.021-.015.051-.008.076 0 .45.136.934.111 1.368-.069.023-.008.045-.014.063.002.009.008.017.017.023.027l7.519 10.898zM5.875 22.562L4.152 20.84l3.404-1.45c.009-.004.018-.006.028-.006.028 0 .045.028.06.054l.109.154.011.013c.01.014.003.028-.007.042l-1.881 2.915zm-2.486-2.484L1.208 17.9l-.827-.87 6.63 1.374.025.004c.041.007.086.014.086.053s-.049.061-.091.077l-.019.008-3.623 1.533zM0 15.909c.008-.14.033-.279.075-.413.124-.389.459-.724 1.133-1.397l2.791-2.787 3.865 5.581c.022.03.048.063.022.088-.122.134-.244.281-.33.441-.009.02-.024.038-.042.052-.011.007-.022.004-.035.002h-.002L0 15.909zm4.746-5.344l3.752-3.748 2.784 1.18 1.91.81c.025.01.048.02.059.045.007.015.003.034 0 .05a1.67 1.67 0 0 0 .437 1.526c.025.025 0 .061-.022.092l-.012.018-3.81 5.895c-.01.017-.019.031-.036.042s-.048.007-.072.001c-.148-.039-.3-.059-.454-.062-.137 0-.286.025-.436.052-.017.003-.033.006-.046-.004s-.027-.026-.038-.042l-4.017-5.853zm4.51-4.505l4.857-4.852C14.786.537 15.122.2 15.512.078c.328-.104.68-.104 1.008 0 .389.123.726.459 1.399 1.131l1.053 1.052-3.455 5.345c-.009.016-.02.029-.034.04-.021.014-.05.008-.075 0-.272-.083-.561-.098-.84-.044s-.542.175-.764.353c-.022.023-.056.01-.084-.003l-4.462-1.89zm10.448-3.068l3.19 3.186-.769 4.755v.013c-.001.011-.003.022-.007.032-.008.017-.025.02-.042.025a1.53 1.53 0 0 0-.458.228c-.006.004-.012.009-.017.014s-.018.019-.033.021-.024-.002-.036-.006l-4.861-2.063-.009-.004c-.031-.012-.068-.027-.068-.059a1.83 1.83 0 0 0-.259-.764c-.023-.038-.049-.078-.029-.118l3.397-5.26zm-3.285 7.182l4.557 1.928c.025.012.053.023.064.048.004.016.004.032 0 .048a1.14 1.14 0 0 0-.025.22v.128c0 .032-.033.045-.063.058l-.009.003-10.149 4.317c-.014 0-.029 0-.043-.014-.025-.025 0-.06.023-.092l.012-.017 3.745-5.792.007-.01c.022-.035.047-.074.087-.074l.037.006.237.022c.568 0 1.095-.276 1.412-.749.007-.012.017-.024.028-.033.023-.017.056-.008.082.003zm-5.219 7.665l10.26-4.371s.015 0 .029.014c.056.056.104.093.149.129l.023.014c.021.012.042.025.044.047 0 .008 0 .013-.002.021l-.879 5.393-.003.022c-.006.042-.012.089-.051.089-.234.016-.461.088-.661.212s-.367.293-.486.495l-.004.007c-.012.019-.023.038-.042.047s-.04.005-.059.001l-8.182-1.686c-.008-.002-.127-.433-.136-.434z" />
  <defs>
    <radialGradient id="A" cx="0" cy="0" r="1" gradientUnits="userSpaceOnUse"
      gradientTransform="translate(16 -16.0001) scale(32 32.0001)">
      <stop stop-color="#20c6b7" />
      <stop offset="1" stop-color="#4d9abf" />
    </radialGradient>
  </defs>
</svg>