<svg xmlns="http://www.w3.org/2000/svg" width="36" height="32" fill="transparent" xmlns:v="https://vecta.io/nano">
  <path fill="#00d8ff"
    d="M29.599 10.372l-1.159-.365.179-.79c.877-4.254.304-7.682-1.655-8.81-1.878-1.082-4.949.046-8.051 2.743l-.896.822-.596-.55C14.169.538 10.911-.677 8.954.454 7.078 1.539 6.522 4.761 7.312 8.793l.266 1.191-1.332.419C2.434 11.731 0 13.812 0 15.97c0 2.229 2.613 4.465 6.583 5.82l.973.304-.283 1.284c-.753 3.962-.165 7.108 1.706 8.186 1.933 1.114 5.177-.031 8.335-2.79l.751-.692.973.887c3.06 2.63 6.081 3.692 7.951 2.611 1.931-1.117 2.559-4.496 1.744-8.608l-.216-.961.669-.209C33.315 20.437 36 18.228 36 15.97c0-2.166-2.513-4.261-6.401-5.598zm-.895 9.973l-.605.189c-.456-1.441-1.07-2.973-1.823-4.556.718-1.546 1.309-3.058 1.752-4.49l1.07.337c3.331 1.146 5.363 2.84 5.363 4.145 0 1.39-2.195 3.195-5.758 4.375zm-1.479 2.927c.36 1.818.412 3.462.173 4.747-.214 1.155-.645 1.925-1.179 2.233-1.134.656-3.561-.197-6.177-2.446l-.905-.825c1.014-1.108 2.028-2.397 3.018-3.828 1.74-.154 3.385-.407 4.876-.751l.195.87zm-14.952 6.866c-1.108.391-1.991.402-2.525.095-1.136-.654-1.608-3.18-.964-6.568l.263-1.194c1.475.326 3.107.56 4.851.702a37.44 37.44 0 0 0 3.09 3.814l-.686.631c-1.397 1.22-2.796 2.085-4.03 2.521zM7.08 20.336c-1.755-.599-3.205-1.378-4.199-2.229-.893-.764-1.344-1.522-1.344-2.138 0-1.31 1.954-2.98 5.214-4.115l1.239-.39c.451 1.464 1.041 2.995 1.755 4.543-.722 1.571-1.322 3.126-1.777 4.607l-.888-.278zM8.821 8.498c-.677-3.454-.227-6.06.904-6.714 1.204-.697 3.867.297 6.674 2.787l.54.498c-1.046 1.122-2.079 2.4-3.067 3.792-1.693.157-3.314.409-4.804.746l-.247-1.108zm15.529 3.831l-1.095-1.799 3.283.573c-.31.994-.697 2.032-1.152 3.097l-1.036-1.872zm-6.333-6.162c.709.768 1.42 1.625 2.119 2.555l-4.255-.001 2.136-2.554zm-6.373 6.173l-1.016 1.86-1.144-3.112 3.264-.56-1.104 1.812zm1.136 9.182l-3.318-.533c.318-1.026.709-2.091 1.167-3.175l1.021 1.861 1.13 1.847zm5.279 4.36c-.729-.786-1.456-1.655-2.166-2.59l2.106.041 2.173-.048-2.113 2.597zm7.34-8.123l1.209 3.164c-1.044.238-2.171.43-3.358.572l1.105-1.83 1.044-1.906zm-2.376 1.138l-1.727 2.784-3.297.116a50.49 50.49 0 0 1-3.259-.103l-1.76-2.788-1.536-2.898 1.531-2.899 1.745-2.776L18 10.208l3.284.124 1.735 2.767 1.552 2.886-1.547 2.911zm3.172-17.158c1.206.695 1.674 3.496.917 7.169l-.162.715c-1.494-.344-3.116-.601-4.814-.76-.989-1.407-2.014-2.687-3.043-3.794l.828-.759c2.658-2.311 5.142-3.223 6.274-2.571zM18 12.758c1.775 0 3.215 1.438 3.215 3.212S19.775 19.181 18 19.181s-3.215-1.438-3.215-3.212 1.439-3.212 3.215-3.212z" />
</svg>