<svg xmlns="http://www.w3.org/2000/svg" width="34" height="32" fill="transparent" xmlns:v="https://vecta.io/nano">
  <path fill="#764abc"
    d="M23.558 22.349a2.41 2.41 0 0 0 2.163-2.488c-.043-1.287-1.125-2.316-2.423-2.316h-.087a2.41 2.41 0 0 0-2.336 2.488c.043.643.303 1.201.692 1.587-1.471 2.874-3.721 4.976-7.096 6.735-2.293 1.201-4.673 1.63-7.052 1.33-1.947-.257-3.461-1.115-4.413-2.531-1.384-2.102-1.514-4.375-.346-6.649.822-1.63 2.12-2.831 2.942-3.432-.173-.558-.433-1.501-.562-2.187-6.274 4.504-5.625 10.595-3.721 13.469 1.428 2.145 4.327 3.475 7.528 3.475.865 0 1.731-.086 2.596-.3 5.538-1.072 9.735-4.332 12.115-9.18zm7.615-5.319c-3.288-3.818-8.134-5.919-13.672-5.919h-.692a2.38 2.38 0 0 0-2.12-1.287h-.087a2.41 2.41 0 0 0-2.336 2.488c.043 1.287 1.125 2.316 2.423 2.316h.086c.952-.043 1.774-.643 2.12-1.458h.779c3.288 0 6.403.944 9.216 2.788 2.163 1.415 3.721 3.26 4.586 5.491.736 1.802.692 3.56-.087 5.062-1.211 2.273-3.245 3.517-5.928 3.517a11.15 11.15 0 0 1-4.24-.901 25.52 25.52 0 0 1-1.947 1.544c1.861.858 3.764 1.33 5.582 1.33 4.154 0 7.225-2.273 8.394-4.547 1.255-2.488 1.168-6.777-2.077-10.424zM9.194 23.078c.043 1.287 1.125 2.316 2.423 2.316h.087a2.41 2.41 0 0 0 2.336-2.488c-.043-1.287-1.125-2.316-2.423-2.316h-.086c-.087 0-.216 0-.303.043-1.774-2.917-2.51-6.091-2.25-9.523.173-2.574 1.038-4.804 2.553-6.649 1.255-1.587 3.678-2.359 5.322-2.402 4.586-.086 6.533 5.576 6.663 7.85.563.129 1.514.429 2.163.643C25.159 3.603 20.833 0 16.679 0c-3.894 0-7.485 2.788-8.913 6.906-1.99 5.491-.692 10.767 1.731 14.928-.216.3-.346.772-.303 1.244z" />
</svg>