<svg xmlns="http://www.w3.org/2000/svg" width="32" height="32" fill="transparent" xmlns:v="https://vecta.io/nano">
  <path fill="url(#A)"
    d="M31.897 4.737L16.862 31.582c-.071.126-.174.232-.298.305s-.267.113-.412.113a.82.82 0 0 1-.412-.11c-.125-.073-.229-.177-.301-.303L.108 4.739c-.077-.135-.114-.289-.107-.444s.059-.305.149-.431.214-.225.357-.284a.82.82 0 0 1 .454-.048l15.05 2.687a.82.82 0 0 0 .289 0l14.736-2.682a.82.82 0 0 1 .453.046c.144.058.268.156.358.281s.143.274.151.429a.82.82 0 0 1-.102.444z" />
  <path fill="url(#B)"
    d="M23.18.009L12.055 2.185a.41.41 0 0 0-.229.132c-.06.068-.095.154-.1.245l-.684 11.542c-.004.063.007.127.032.185a.41.41 0 0 0 .28.236c.062.015.126.015.188.001l3.097-.714a.41.41 0 0 1 .377.106c.049.048.085.107.105.172s.023.135.009.202l-.92 4.5a.41.41 0 0 0 .125.383.41.41 0 0 0 .394.088l1.913-.58a.41.41 0 0 1 .395.089c.052.048.091.108.113.176s.026.139.011.209l-1.463 7.068c-.091.442.498.683.744.305l.164-.254 9.066-18.066c.034-.068.048-.144.041-.22a.41.41 0 0 0-.261-.343.41.41 0 0 0-.223-.02l-3.188.613a.41.41 0 0 1-.206-.014c-.066-.022-.126-.061-.173-.112s-.08-.114-.096-.182-.014-.139.005-.206l2.08-7.204c.02-.067.021-.138.006-.207a.41.41 0 0 0-.27-.295.41.41 0 0 0-.207-.013l-.001.001z" />
  <defs>
    <linearGradient id="A" x1="-.267" y1="-1.064" x2="21.321" y2="25.067" gradientUnits="userSpaceOnUse">
      <stop stop-color="#41d1ff" />
      <stop offset="1" stop-color="#bd34fe" />
    </linearGradient>
    <linearGradient id="B" x1="15.146" y1=".599" x2="18.521" y2="23.785" gradientUnits="userSpaceOnUse">
      <stop stop-color="#ffea83" />
      <stop offset=".083" stop-color="#ffdd35" />
      <stop offset="1" stop-color="#ffa800" />
    </linearGradient>
  </defs>
</svg>