<svg xmlns="http://www.w3.org/2000/svg" width="32" height="32" fill="transparent" xmlns:v="https://vecta.io/nano">
  <path fill="#0065a9"
    d="M30.869 3.39L24.28.199a1.98 1.98 0 0 0-1.198-.17c-.407.07-.783.265-1.075.559L.437 20.368c-.262.239-.418.573-.435.928s.107.702.344.966l.088.088 1.761 1.609c.23.211.526.334.837.348s.617-.082.864-.272L29.877 4.218a1.32 1.32 0 0 1 .675-.265c.245-.023.492.023.713.133s.406.28.536.491a1.34 1.34 0 0 1 .199.701V5.2a2.02 2.02 0 0 0-.306-1.069 2 2 0 0 0-.825-.741z" />
  <path fill="#007acc"
    d="M30.869 28.61l-6.589 3.192c-.372.18-.791.239-1.198.17a1.99 1.99 0 0 1-1.075-.558L.437 11.632c-.262-.239-.418-.573-.435-.928s.107-.702.344-.966l.088-.089 1.761-1.609c.23-.212.527-.335.839-.349s.618.083.866.273l25.977 19.817a1.32 1.32 0 0 0 .675.265c.245.023.492-.023.713-.133s.406-.28.536-.491a1.34 1.34 0 0 0 .199-.701v.083a2.02 2.02 0 0 1-.308 1.066c-.2.319-.485.575-.823.739z" />
  <path fill="#1f9cf0"
    d="M24.28 31.802c-.372.18-.791.239-1.198.17a1.99 1.99 0 0 1-1.075-.558 1.17 1.17 0 0 0 .599.318c.226.044.461.021.674-.068a1.17 1.17 0 0 0 .523-.432c.128-.193.198-.419.198-.651V1.42a1.18 1.18 0 0 0-.197-.655 1.17 1.17 0 0 0-.526-.434c-.214-.089-.45-.112-.677-.067a1.17 1.17 0 0 0-.599.323 1.99 1.99 0 0 1 1.075-.559c.407-.07.826-.011 1.198.169l6.588 3.186a2 2 0 0 1 .828.74A2.02 2.02 0 0 1 32 5.195v21.611a2.02 2.02 0 0 1-.306 1.07 2 2 0 0 1-.826.742l-6.588 3.185z" />
</svg>